<?xml version="1.0" encoding="utf-8"?>
<!-- Generator: Adobe Illustrator 26.0.2, SVG Export Plug-In . SVG Version: 6.00 Build 0)  -->
<svg version="1.1" id="Layer_1" xmlns="http://www.w3.org/2000/svg" xmlns:xlink="http://www.w3.org/1999/xlink" x="0px" y="0px"
	 viewBox="0 0 18 16" style="enable-background:new 0 0 18 16;" xml:space="preserve">
<style type="text/css">
	.st0{fill:#264769;}
</style>
<g>
	<path class="st0" d="M13.8,5.1l-4,4.3V1.3c0-0.5-0.4-0.8-0.8-0.8c-0.5,0-0.8,0.4-0.8,0.8v8.1L4,5.1L3,6.1l5.9,6.4l5.9-6.4L13.8,5.1
		z"/>
	<g>
		<path class="st0" d="M17.3,15.5H0.7v-4.7c0-0.5,0.4-0.8,0.8-0.8s0.8,0.4,0.8,0.8v3.1h13.3v-3.1c0-0.5,0.4-0.8,0.8-0.8
			c0.5,0,0.8,0.4,0.8,0.8V15.5z"/>
	</g>
</g>
</svg>
