<?xml version="1.0" encoding="UTF-8"?><svg id="a" xmlns="http://www.w3.org/2000/svg" viewBox="0 0 695.83 320.98"><defs><style>.b{fill:#fff;}</style></defs><path class="b" d="M219,21.53c-.02-1.48,.27-2.95,.86-4.31,.55-1.25,1.35-2.37,2.36-3.3,1.02-.93,2.22-1.65,3.52-2.11,2.8-.99,5.85-.99,8.65,0,1.31,.46,2.51,1.18,3.53,2.11,1,.93,1.81,2.05,2.36,3.3,.59,1.36,.88,2.83,.86,4.31,.02,1.48-.27,2.94-.86,4.3-.55,1.25-1.36,2.37-2.36,3.3-1.02,.93-2.22,1.65-3.53,2.11-2.8,.99-5.85,.99-8.65,0-1.3-.46-2.5-1.18-3.52-2.11-1.01-.92-1.81-2.05-2.36-3.3-.59-1.36-.88-2.82-.86-4.3Zm6.15,0c-.06,1.34,.4,2.64,1.29,3.64,2.06,1.86,5.2,1.86,7.26,0,.89-1,1.36-2.3,1.3-3.64,.06-1.34-.4-2.65-1.29-3.65-2.06-1.86-5.2-1.86-7.26,0-.9,1-1.38,2.31-1.33,3.65h.03Z"/><path class="b" d="M246.85,16.48h-4.06v-4.92h4.06v-3.56c0-1.04,.09-2.08,.28-3.1,.18-.92,.56-1.8,1.11-2.56,.62-.77,1.43-1.36,2.36-1.7,1.28-.47,2.64-.69,4-.64,.63,0,1.24,0,1.84,.08,.6,.06,1.19,.15,1.77,.29l-.21,5.21c-.33-.13-.66-.23-1-.31-.33-.07-.66-.1-1-.1-.79-.06-1.57,.16-2.21,.63-.62,.72-.9,1.67-.79,2.61v3.15h4.55v4.92h-4.55v15h-6.15v-15Z"/><path class="b" d="M272.6,11.56h5.65v2.63h.09c.29-.4,.62-.77,1-1.09,.42-.39,.89-.72,1.39-1,.55-.31,1.14-.56,1.75-.74,.65-.2,1.32-.29,2-.29,1.37-.02,2.73,.24,4,.76,1.18,.48,2.23,1.2,3.1,2.13,.88,.94,1.56,2.05,2,3.26,.47,1.33,.7,2.73,.69,4.14,0,1.36-.21,2.71-.63,4-.4,1.22-1.01,2.37-1.81,3.38-.76,.98-1.73,1.78-2.83,2.36-1.18,.6-2.49,.91-3.81,.88-1.22,0-2.44-.19-3.59-.59-1.08-.38-2.03-1.08-2.72-2h-.08v11.45h-6.2V11.56Zm5.65,10c-.06,1.34,.4,2.64,1.29,3.64,2.06,1.86,5.2,1.86,7.26,0,.89-1,1.35-2.3,1.29-3.64,.06-1.34-.4-2.65-1.29-3.65-2.06-1.86-5.2-1.86-7.26,0-.88,1-1.34,2.29-1.29,3.62v.03Z"/><path class="b" d="M316.71,28c-.97,1.29-2.25,2.32-3.71,3-1.47,.67-3.06,1.01-4.67,1-1.48,0-2.94-.24-4.33-.74-1.31-.46-2.51-1.18-3.53-2.11-1-.93-1.8-2.05-2.35-3.3-.59-1.36-.88-2.82-.86-4.3-.02-1.48,.27-2.95,.86-4.31,.55-1.25,1.35-2.37,2.35-3.3,1.02-.94,2.22-1.66,3.53-2.13,1.39-.5,2.85-.75,4.33-.74,1.33-.02,2.64,.24,3.87,.74,1.13,.47,2.14,1.19,2.95,2.11,.83,.97,1.47,2.09,1.87,3.3,.45,1.39,.67,2.85,.65,4.31v1.92h-14.28c.2,1.09,.76,2.08,1.6,2.81,.85,.68,1.91,1.04,3,1,.9,.03,1.79-.21,2.56-.68,.71-.46,1.33-1.05,1.83-1.74l4.33,3.16Zm-5.21-8.77c.06-.99-.31-1.95-1-2.66-.72-.74-1.72-1.15-2.75-1.11-.62-.01-1.23,.1-1.8,.33-.49,.19-.94,.48-1.33,.84-.37,.33-.66,.74-.87,1.19-.2,.44-.32,.92-.34,1.41h8.09Z"/><path class="b" d="M320.65,21.53c-.02-1.48,.27-2.95,.86-4.31,.55-1.25,1.35-2.37,2.36-3.3,1.02-.93,2.22-1.65,3.52-2.11,2.8-.99,5.85-.99,8.65,0,1.31,.46,2.51,1.18,3.53,2.11,1,.93,1.81,2.05,2.36,3.3,.59,1.36,.88,2.83,.86,4.31,.02,1.48-.27,2.94-.86,4.3-.55,1.25-1.36,2.37-2.36,3.3-1.03,.94-2.25,1.66-3.57,2.11-2.8,.99-5.85,.99-8.65,0-1.3-.46-2.5-1.18-3.52-2.11-1.01-.92-1.81-2.05-2.36-3.3-.58-1.36-.86-2.82-.82-4.3Zm6.15,0c-.06,1.34,.4,2.64,1.29,3.64,2.06,1.87,5.19,1.87,7.25,0,.9-1,1.36-2.3,1.3-3.64,.06-1.34-.4-2.65-1.3-3.65-2.06-1.87-5.19-1.87-7.25,0-.89,1-1.35,2.31-1.29,3.65Z"/><path class="b" d="M347,11.56h5.66v2.63h.08c.29-.4,.62-.77,1-1.09,.42-.39,.89-.72,1.4-1,.55-.31,1.13-.56,1.74-.74,.65-.19,1.32-.29,2-.29,1.37-.02,2.73,.24,4,.76,1.18,.48,2.23,1.2,3.1,2.13,.88,.94,1.56,2.05,2,3.26,.47,1.33,.71,2.73,.7,4.14,0,1.36-.21,2.71-.64,4-.39,1.22-1,2.37-1.8,3.38-.77,.98-1.74,1.78-2.85,2.36-1.18,.6-2.49,.9-3.82,.88-1.22,0-2.43-.19-3.58-.59-1.09-.38-2.04-1.08-2.73-2h-.08v11.45h-6.18V11.56Zm5.66,10c-.06,1.34,.4,2.64,1.29,3.64,2.06,1.87,5.19,1.87,7.25,0,.9-1,1.36-2.3,1.3-3.64,.06-1.34-.4-2.65-1.3-3.65-2.06-1.87-5.19-1.87-7.25,0-.89,.99-1.36,2.29-1.32,3.62l.03,.03Z"/><path class="b" d="M372.31,.49h6.15V31.49h-6.15V.49Z"/><path class="b" d="M401.74,28c-.98,1.29-2.27,2.32-3.74,3-1.47,.67-3.06,1.01-4.67,1-1.48,0-2.94-.24-4.33-.74-1.3-.46-2.5-1.18-3.52-2.11-1.01-.92-1.81-2.05-2.36-3.3-.59-1.36-.88-2.82-.86-4.3-.02-1.48,.27-2.95,.86-4.31,.55-1.25,1.35-2.37,2.36-3.3,1.02-.94,2.21-1.67,3.52-2.13,1.39-.5,2.85-.75,4.33-.74,1.33-.02,2.64,.24,3.87,.74,1.15,.46,2.18,1.18,3,2.11,.83,.97,1.47,2.09,1.87,3.3,.46,1.39,.68,2.85,.66,4.31v1.92h-14.31c.2,1.09,.76,2.08,1.6,2.81,.85,.68,1.91,1.04,3,1,.9,.03,1.79-.21,2.56-.68,.71-.46,1.33-1.05,1.83-1.74l4.33,3.16Zm-5.2-8.77c.05-.99-.31-1.95-1-2.66-.72-.74-1.72-1.15-2.75-1.11-.62-.01-1.23,.1-1.8,.33-.49,.2-.94,.48-1.33,.84-.37,.33-.66,.74-.86,1.19-.21,.44-.32,.92-.35,1.41h8.09Z"/><path class="b" d="M420.15,12.3l4.43,15.58h.08l5.13-15.58h2.78l5.13,15.58h.08l4.43-15.58h3.2l-6.07,19.19h-3l-5.08-15.75h-.08l-5.09,15.75h-3l-6.09-19.19h3.15Z"/><path class="b" d="M448.93,.49h2.71V15.38h.08c.31-.53,.7-1.02,1.15-1.44,.47-.44,.99-.82,1.56-1.13,.58-.31,1.19-.56,1.82-.73,.62-.18,1.26-.27,1.91-.27,2.46,0,4.27,.65,5.45,1.95,1.26,1.56,1.89,3.54,1.76,5.55v12.18h-2.7v-10.62c.1-1.71-.28-3.41-1.11-4.9-.74-1.13-2.1-1.7-4.1-1.7-.39,.03-.77,.08-1.15,.16-.73,.15-1.41,.46-2,.9-.78,.59-1.41,1.35-1.86,2.22-.61,1.28-.89,2.69-.82,4.1v9.84h-2.71V.49Z"/><path class="b" d="M491.12,21.89c.01,1.37-.25,2.73-.76,4-.48,1.2-1.2,2.29-2.11,3.2-.92,.93-2.03,1.65-3.25,2.13-2.64,1.01-5.56,1.01-8.2,0-2.43-.96-4.36-2.88-5.33-5.31-1-2.57-1-5.43,0-8,.97-2.43,2.9-4.35,5.33-5.31,2.64-1.01,5.56-1.01,8.2,0,1.21,.48,2.3,1.19,3.22,2.11,.91,.91,1.63,2,2.11,3.2,.52,1.26,.79,2.61,.79,3.98Zm-2.95,0c0-1.02-.16-2.04-.51-3-.33-.89-.82-1.71-1.46-2.42-.64-.69-1.41-1.24-2.27-1.62-1.92-.78-4.08-.78-6,0-.86,.38-1.63,.93-2.26,1.62-.63,.71-1.11,1.53-1.43,2.42-.69,1.94-.69,4.06,0,6,.32,.89,.8,1.71,1.43,2.42,.63,.69,1.4,1.24,2.26,1.62,1.92,.78,4.08,.78,6,0,.86-.38,1.63-.93,2.27-1.62,.64-.71,1.13-1.53,1.46-2.42,.35-.96,.52-1.98,.51-3h0Z"/><path class="b" d="M506.21,16.85c-.39-.74-.95-1.38-1.64-1.85-.74-.48-1.62-.72-2.5-.69-.48,0-.95,.05-1.42,.16-.45,.1-.89,.27-1.29,.51-.37,.22-.68,.53-.92,.89-.24,.39-.36,.85-.35,1.31-.07,.79,.29,1.55,.94,2,.88,.5,1.84,.86,2.83,1.06l2.75,.66c1.28,.23,2.46,.84,3.39,1.75,.89,.92,1.37,2.15,1.33,3.43,.03,.93-.19,1.86-.63,2.68-.42,.74-1,1.37-1.7,1.85-.74,.47-1.55,.81-2.4,1-.9,.22-1.82,.33-2.75,.33-1.42,.01-2.82-.27-4.12-.84-1.35-.62-2.48-1.63-3.26-2.89l2.34-1.6c.52,.85,1.23,1.56,2.07,2.09,.9,.54,1.95,.81,3,.78,.55,0,1.1-.06,1.64-.18,.51-.12,1.01-.31,1.46-.58,.41-.25,.75-.59,1-1,.27-.43,.4-.93,.39-1.44,.06-.83-.35-1.63-1.06-2.07-.81-.46-1.68-.8-2.59-1l-2.62-.62c-.33-.08-.77-.22-1.33-.41-.59-.2-1.14-.49-1.64-.86-.55-.4-1.02-.91-1.38-1.49-.4-.69-.6-1.48-.57-2.28-.02-.9,.18-1.78,.59-2.58,.38-.72,.93-1.34,1.6-1.81,.7-.46,1.47-.8,2.28-1,.85-.24,1.73-.36,2.62-.35,1.28-.01,2.56,.25,3.73,.78,1.17,.55,2.12,1.49,2.67,2.66l-2.46,1.6Z"/><path class="b" d="M515.39,22.63c.08,.94,.31,1.85,.7,2.71,.36,.82,.88,1.56,1.52,2.19,.63,.62,1.36,1.12,2.17,1.47,.84,.36,1.75,.54,2.66,.53,1.32,.04,2.63-.31,3.76-1,.96-.58,1.78-1.38,2.39-2.32l2.1,1.72c-1,1.33-2.3,2.4-3.8,3.12-1.4,.63-2.92,.95-4.45,.94-1.37,.02-2.73-.24-4-.76-1.18-.48-2.25-1.2-3.14-2.11-.89-.93-1.59-2.01-2.07-3.2-.51-1.27-.77-2.63-.76-4-.01-1.37,.24-2.73,.74-4,.45-1.19,1.13-2.27,2-3.2,1.81-1.86,4.3-2.89,6.89-2.87,1.34-.02,2.66,.24,3.89,.78,1.14,.45,2.16,1.15,3.01,2.03,.79,.87,1.4,1.89,1.79,3,.41,1.19,.62,2.45,.61,3.71v1.23l-16.01,.03Zm13-2.21c.07-1.63-.5-3.22-1.6-4.42-1.22-1.18-2.89-1.8-4.59-1.7-.87,0-1.74,.17-2.54,.51-.8,.33-1.53,.79-2.16,1.37-.61,.57-1.1,1.25-1.47,2-.36,.71-.56,1.5-.56,2.3l12.92-.06Z"/><path class="b" d="M558,31.49h-3V5.17h-9.72V2.46h22.39v2.71h-9.67V31.49Z"/><path class="b" d="M581.53,31.49h-3V5.17h-9.71V2.46h22.38v2.71h-9.71l.04,26.32Z"/><path class="b" d="M610.06,26.08l9.8-23.62h4.51V31.46h-3V6.4h-.09l-10.44,25.09h-1.56l-10.49-25.09h-.09V31.49h-3V2.49h4.51l9.85,23.59Z"/><path class="b" d="M640.69,27.06h.08l9.51-24.6h3.2l-11.32,29h-2.95l-11-29h3.28l9.2,24.6Z"/><path class="b" d="M230.65,64.85c-.39-.75-.95-1.38-1.65-1.85-.74-.48-1.62-.72-2.5-.69-.47,0-.95,.05-1.41,.16-.45,.1-.89,.27-1.29,.51-.37,.22-.69,.53-.93,.89-.24,.39-.36,.85-.34,1.31-.07,.79,.29,1.55,.94,2,.88,.51,1.84,.86,2.83,1.06l2.74,.66c1.27,.26,2.44,.9,3.35,1.82,.88,.92,1.36,2.15,1.33,3.43,.03,.93-.19,1.86-.64,2.68-.41,.74-.98,1.37-1.68,1.85-.73,.48-1.55,.81-2.4,1-.9,.22-1.82,.33-2.74,.33-1.42,.01-2.82-.27-4.12-.84-1.35-.62-2.48-1.63-3.26-2.89l2.33-1.6c.52,.85,1.23,1.56,2.07,2.09,.91,.54,1.95,.81,3,.78,.55,0,1.1-.06,1.64-.18,.51-.12,1-.31,1.45-.58,.41-.25,.75-.59,1-1,.27-.43,.4-.93,.39-1.44,.06-.84-.35-1.63-1.07-2.07-.81-.46-1.67-.8-2.58-1l-2.63-.62c-.32-.08-.77-.22-1.33-.41-.59-.2-1.14-.49-1.64-.86-.55-.4-1.02-.91-1.37-1.49-.41-.69-.61-1.48-.58-2.28-.02-.9,.19-1.78,.6-2.58,.38-.72,.93-1.34,1.6-1.81,.7-.46,1.46-.8,2.27-1,.86-.24,1.74-.36,2.63-.35,1.28-.01,2.56,.25,3.73,.78,1.17,.55,2.11,1.49,2.66,2.66l-2.4,1.53Z"/><path class="b" d="M247.87,62.76h-5.53v11.32c-.01,.59,.05,1.17,.2,1.74,.11,.38,.31,.72,.58,1,.24,.25,.55,.43,.88,.52,.37,.1,.75,.14,1.13,.14,.48,0,.96-.07,1.43-.2,.47-.13,.92-.31,1.35-.54l.13,2.5c-1.15,.5-2.4,.74-3.65,.7-.55,0-1.09-.07-1.62-.2-.56-.14-1.09-.41-1.54-.78-.49-.43-.89-.96-1.15-1.56-.33-.82-.48-1.7-.45-2.58v-12.06h-4.06v-2.46h4.06v-5.41h2.71v5.41h5.53v2.46Z"/><path class="b" d="M263.86,67.72v-.49c0-3.33-1.64-5-4.92-5-2.17-.03-4.27,.78-5.86,2.25l-1.64-1.92c1.8-1.86,4.51-2.79,8.12-2.79,.91,0,1.81,.14,2.68,.41,1.7,.51,3.08,1.76,3.76,3.4,.41,.95,.6,1.97,.58,3v8.57c0,.74,0,1.51,.1,2.32s.14,1.47,.23,2h-2.63c-.08-.47-.14-1-.18-1.52s-.06-1.08-.06-1.6h-.09c-.66,1.16-1.63,2.12-2.8,2.77-1.25,.6-2.62,.89-4,.84-.83,0-1.66-.12-2.46-.35-.76-.22-1.48-.58-2.11-1.06-.62-.48-1.12-1.08-1.48-1.77-.38-.76-.57-1.59-.55-2.44-.08-1.33,.36-2.64,1.21-3.67,.82-.9,1.85-1.59,3-2,1.26-.45,2.57-.72,3.9-.82,1.38-.11,2.64-.17,3.79-.17l1.41,.04Zm-1.39,2.22c-.68,0-1.54,0-2.56,.1-1.01,.06-2.02,.23-3,.49-.88,.23-1.7,.64-2.41,1.21-.67,.55-1.04,1.38-1,2.25-.02,.57,.12,1.12,.39,1.62,.27,.45,.66,.84,1.11,1.11,.44,.29,.93,.5,1.45,.62,.53,.12,1.07,.18,1.62,.18,.87,0,1.73-.17,2.53-.52,.7-.31,1.32-.76,1.83-1.33,.5-.58,.87-1.26,1.08-2,.24-.78,.36-1.59,.35-2.4v-1.33h-1.39Z"/><path class="b" d="M282.76,62.76h-5.53v11.32c-.01,.59,.05,1.17,.2,1.74,.11,.38,.31,.72,.58,1,.24,.25,.55,.43,.88,.52,.37,.1,.75,.14,1.13,.14,.48,0,.96-.07,1.43-.2,.47-.13,.92-.31,1.35-.54l.13,2.5c-1.15,.5-2.4,.74-3.65,.7-.55,0-1.09-.07-1.62-.2-.56-.14-1.09-.41-1.54-.78-.48-.42-.86-.94-1.12-1.52-.33-.82-.48-1.7-.45-2.58v-12.1h-4.06v-2.46h4.06v-5.41h2.71v5.41h5.53l-.03,2.46Z"/><path class="b" d="M300.31,79.49c-.05-.52-.09-1-.1-1.54s0-1,0-1.54h-.08c-.31,.53-.69,1.01-1.13,1.44-.48,.45-1.02,.83-1.6,1.15-.58,.31-1.19,.56-1.82,.73-.62,.18-1.26,.27-1.91,.27-2.46,0-4.28-.67-5.45-2-1.27-1.56-1.9-3.54-1.77-5.55v-12.15h2.71v10.62c-.01,.95,.07,1.9,.24,2.83,.14,.74,.43,1.45,.85,2.07,.4,.57,.95,1.01,1.59,1.27,.81,.31,1.67,.46,2.53,.43,.38-.03,.76-.08,1.14-.16,.73-.15,1.41-.46,2-.91,.78-.59,1.42-1.34,1.87-2.21,.61-1.28,.89-2.69,.82-4.1v-9.84h2.7v15c0,.52,0,1.17,.07,2s.08,1.55,.14,2.26l-2.8-.07Z"/><path class="b" d="M319.42,64.85c-.39-.74-.95-1.38-1.64-1.85-.75-.48-1.62-.72-2.5-.69-.48,0-.95,.05-1.42,.16-.45,.1-.89,.27-1.29,.51-.37,.22-.68,.53-.92,.89-.24,.39-.36,.85-.35,1.31-.07,.79,.29,1.55,.94,2,.88,.51,1.84,.86,2.83,1.06l2.75,.66c1.27,.26,2.43,.9,3.34,1.82,.89,.92,1.37,2.15,1.33,3.43,.03,.93-.19,1.86-.63,2.68-.42,.74-.99,1.37-1.69,1.85-.73,.47-1.54,.81-2.39,1-.91,.22-1.84,.33-2.78,.32-1.42,.01-2.82-.27-4.12-.84-1.35-.62-2.48-1.63-3.26-2.89l2.34-1.6c.51,.85,1.22,1.57,2.07,2.09,.9,.54,1.95,.81,3,.78,.55,0,1.1-.06,1.64-.18,.51-.11,1-.31,1.45-.58,.41-.25,.75-.59,1-1,.27-.43,.4-.93,.39-1.44,.06-.84-.35-1.63-1.07-2.07-.81-.46-1.67-.8-2.58-1l-2.62-.62c-.33-.08-.78-.22-1.34-.41-.59-.21-1.14-.5-1.64-.86-.55-.4-1.02-.91-1.37-1.49-.4-.69-.6-1.48-.57-2.28-.02-.9,.18-1.78,.59-2.58,.38-.72,.93-1.34,1.6-1.81,.7-.46,1.47-.8,2.28-1,.85-.24,1.73-.36,2.62-.35,1.28-.01,2.56,.25,3.73,.78,1.17,.55,2.12,1.49,2.67,2.66l-2.39,1.54Z"/><path class="b" d="M338.4,66.29c0-.85,0-1.71-.06-2.59s-.08-2-.1-3.4h2.66v3.57h.1c.2-.54,.48-1.04,.82-1.5,.37-.49,.8-.92,1.29-1.29,.54-.4,1.14-.71,1.77-.92,.73-.25,1.5-.36,2.27-.35,.67-.01,1.35,.07,2,.24l-.53,2.67c-.5-.16-1.03-.23-1.56-.21-.92-.03-1.84,.18-2.66,.6-.72,.37-1.35,.89-1.85,1.52-.48,.6-.85,1.27-1.09,2-.21,.65-.33,1.32-.34,2v10.86h-2.72v-13.2Z"/><path class="b" d="M352.87,70.63c.08,.94,.31,1.85,.7,2.71,.73,1.64,2.04,2.95,3.69,3.66,.84,.36,1.75,.54,2.66,.53,1.32,.04,2.63-.31,3.76-1,.96-.58,1.78-1.38,2.39-2.32l2.1,1.72c-1,1.33-2.3,2.4-3.8,3.12-1.4,.63-2.92,.95-4.45,.94-1.35,.01-2.7-.24-3.95-.76-1.18-.48-2.25-1.2-3.14-2.11-.89-.93-1.59-2.01-2.07-3.2-.51-1.27-.77-2.63-.76-4-.01-1.37,.24-2.73,.74-4,.47-1.19,1.16-2.28,2.05-3.2,.87-.9,1.92-1.62,3.08-2.11,1.2-.52,2.5-.77,3.81-.76,1.34-.02,2.66,.24,3.89,.78,1.1,.48,2.08,1.19,2.89,2.07,.79,.87,1.4,1.89,1.79,3,.41,1.19,.62,2.45,.61,3.71v1.23h-15.99Zm13-2.22c.07-1.63-.5-3.22-1.6-4.42-1.22-1.18-2.89-1.8-4.59-1.7-.87,0-1.74,.17-2.54,.51-.79,.32-1.51,.77-2.14,1.34-.61,.57-1.1,1.25-1.47,2-.36,.71-.56,1.5-.56,2.3l12.9-.03Z"/><path class="b" d="M373.78,64.56c0-.71-.02-1.42-.06-2.13,0-.71-.09-1.42-.14-2.13h2.91v2.91h.08c.63-1.1,1.59-1.99,2.73-2.54,1.07-.55,2.26-.84,3.46-.86,.56,0,1.11,.06,1.66,.16,.59,.11,1.17,.31,1.7,.6,.58,.31,1.1,.72,1.54,1.21,.52,.59,.93,1.26,1.21,2,.54-1.22,1.45-2.24,2.6-2.92,1.12-.69,2.4-1.05,3.71-1.06,2.46,0,4.28,.65,5.46,1.95,1.26,1.56,1.89,3.54,1.76,5.55v12.19h-2.71v-11.2c.1-1.55-.25-3.1-1-4.46-.67-1.04-1.94-1.56-3.81-1.56-.89-.03-1.77,.17-2.55,.59-.67,.39-1.24,.93-1.66,1.58-.43,.69-.75,1.45-.92,2.24-.19,.85-.29,1.73-.29,2.6v10.21h-2.7v-11.2c.1-1.55-.25-3.1-1-4.46-.67-1.04-1.94-1.56-3.81-1.56-.38,.03-.76,.08-1.13,.16-.67,.15-1.29,.46-1.82,.9-.72,.61-1.3,1.37-1.7,2.22-.57,1.29-.83,2.69-.76,4.1v9.84h-2.71l-.05-14.93Z"/><path class="b" d="M421,67.72v-.49c0-3.33-1.64-5-4.92-5-2.17-.03-4.27,.78-5.86,2.25l-1.64-1.92c1.8-1.86,4.51-2.79,8.12-2.79,.91,0,1.81,.14,2.68,.41,.83,.25,1.59,.68,2.24,1.25,.65,.59,1.17,1.31,1.52,2.11,.4,.95,.59,1.97,.57,3v8.57c0,.74,0,1.51,.1,2.32s.15,1.47,.23,2h-2.63c-.08-.47-.14-1-.18-1.52s-.06-1.08-.06-1.6h-.08c-.67,1.16-1.64,2.12-2.81,2.77-1.25,.6-2.62,.89-4,.84-.83,0-1.66-.12-2.46-.35-.76-.22-1.48-.58-2.11-1.06-.62-.48-1.12-1.08-1.48-1.77-.38-.76-.57-1.59-.55-2.44-.08-1.33,.36-2.64,1.21-3.67,.82-.9,1.85-1.59,3-2,1.26-.45,2.57-.72,3.9-.82,1.38-.11,2.64-.17,3.79-.17l1.42,.08Zm-1.39,2.22c-.68,0-1.54,0-2.56,.1-1,.06-1.99,.23-2.95,.49-.88,.23-1.71,.64-2.42,1.21-.67,.55-1.04,1.38-1,2.25-.02,.57,.12,1.12,.39,1.62,.26,.45,.62,.83,1.05,1.11,.44,.29,.93,.5,1.45,.62,.53,.12,1.08,.18,1.62,.18,.88,.02,1.75-.14,2.56-.49,.7-.31,1.32-.76,1.83-1.33,.5-.58,.87-1.26,1.09-2,.23-.78,.35-1.59,.34-2.4v-1.36h-1.4Z"/><path class="b" d="M433.93,52.92c.01,.54-.21,1.06-.62,1.41-.75,.75-1.95,.75-2.7,0-.78-.71-.83-1.92-.12-2.7,.04-.04,.08-.08,.12-.12,.75-.75,1.95-.75,2.7,0,.41,.36,.63,.87,.62,1.41Zm-.62,26.57h-2.7v-19.19h2.7v19.19Z"/><path class="b" d="M442.42,60.3c.05,.52,.08,1,.1,1.54s0,1,0,1.54h.08c.31-.53,.7-1.02,1.15-1.44,.47-.44,.99-.82,1.56-1.13,.58-.31,1.19-.56,1.82-.73,.62-.18,1.26-.27,1.91-.27,2.46,0,4.27,.65,5.45,1.95,1.26,1.56,1.89,3.54,1.76,5.55v12.18h-2.7v-10.62c.1-1.71-.28-3.41-1.11-4.9-.74-1.13-2.1-1.7-4.1-1.7-.39,.03-.77,.08-1.15,.16-.73,.15-1.41,.46-2,.9-.78,.59-1.41,1.35-1.86,2.22-.61,1.28-.89,2.69-.82,4.1v9.84h-2.71v-15c0-.52,0-1.17-.06-2s-.09-1.55-.14-2.26l2.82,.07Z"/><path class="b" d="M464.51,70.63c.08,.94,.32,1.85,.7,2.71,.36,.82,.88,1.56,1.52,2.19,.63,.62,1.36,1.12,2.17,1.47,.84,.36,1.75,.54,2.67,.53,1.32,.04,2.62-.31,3.75-1,.96-.59,1.78-1.38,2.4-2.32l2.09,1.72c-1.01,1.31-2.31,2.36-3.81,3.07-1.4,.63-2.92,.95-4.45,.94-1.37,.02-2.73-.24-4-.76-1.18-.48-2.25-1.2-3.14-2.11-.89-.93-1.59-2.01-2.07-3.2-.51-1.27-.77-2.63-.76-4-.01-1.37,.24-2.73,.74-4,.47-1.19,1.17-2.28,2.05-3.2,2.84-2.82,7.1-3.65,10.79-2.09,2.21,.96,3.9,2.82,4.67,5.1,.41,1.19,.62,2.45,.61,3.71v1.23h-15.93Zm13-2.2c.23-3.17-2.16-5.93-5.33-6.16-.3-.02-.6-.02-.9,0-.87,0-1.74,.17-2.54,.51-.79,.32-1.52,.79-2.15,1.37-.61,.57-1.11,1.25-1.48,2-.36,.71-.55,1.5-.55,2.3l12.95-.03Z"/><path class="b" d="M504.57,79.49h-2.7v-3.2h-.09c-.41,.65-.94,1.23-1.55,1.71-.58,.46-1.22,.84-1.89,1.15-.64,.3-1.31,.52-2,.66-.66,.13-1.33,.2-2,.2-1.41,.02-2.81-.24-4.12-.76-1.21-.49-2.3-1.22-3.22-2.14-.91-.92-1.63-2-2.11-3.2-1-2.57-1-5.43,0-8,.48-1.2,1.2-2.28,2.11-3.2,.92-.91,2.01-1.63,3.22-2.11,1.31-.52,2.71-.78,4.12-.76,.67,0,1.34,.07,2,.2,.69,.14,1.36,.36,2,.66,.67,.31,1.31,.69,1.89,1.15,.61,.47,1.13,1.04,1.55,1.68h.09v-15h2.7v30.96Zm-17.51-9.6c0,1.02,.17,2.04,.52,3,.31,.89,.79,1.71,1.42,2.42,.64,.69,1.42,1.24,2.28,1.62,.95,.4,1.97,.6,3,.59,1.05,0,2.09-.19,3.06-.59,.91-.38,1.74-.93,2.44-1.62,.68-.7,1.23-1.52,1.6-2.42,.76-1.93,.76-4.07,0-6-.37-.9-.92-1.72-1.6-2.42-.7-.69-1.53-1.24-2.44-1.62-.97-.4-2.01-.6-3.06-.59-1.03-.01-2.05,.19-3,.59-.86,.38-1.64,.94-2.28,1.63-.64,.7-1.13,1.53-1.45,2.42-.34,.96-.5,1.97-.49,2.99Z"/><path class="b" d="M524.46,60.3c0,.52,.08,1,.1,1.54s0,1,0,1.54h.08c.31-.53,.7-1.02,1.15-1.44,.47-.44,.99-.82,1.56-1.13,.58-.31,1.19-.56,1.82-.73,.62-.18,1.26-.27,1.91-.27,2.46,0,4.28,.65,5.45,1.95,1.26,1.56,1.89,3.54,1.76,5.55v12.18h-2.7v-10.62c.1-1.69-.27-3.38-1.09-4.87-.74-1.13-2.1-1.7-4.1-1.7-.39,.03-.77,.08-1.15,.16-.73,.15-1.41,.46-2,.9-.78,.59-1.42,1.35-1.87,2.22-.61,1.28-.89,2.69-.82,4.1v9.84h-2.71v-15c0-.52,0-1.17-.06-2s-.09-1.55-.14-2.26l2.81,.04Z"/><path class="b" d="M546.56,70.63c.07,.94,.31,1.85,.69,2.71,.36,.82,.88,1.56,1.52,2.19,.63,.62,1.36,1.12,2.17,1.47,.84,.36,1.75,.54,2.67,.53,1.32,.04,2.62-.31,3.75-1,.96-.59,1.78-1.38,2.4-2.32l2.09,1.72c-1,1.31-2.3,2.36-3.79,3.07-1.4,.63-2.92,.95-4.45,.94-1.37,.02-2.73-.24-4-.76-1.18-.48-2.25-1.2-3.14-2.11-.89-.93-1.59-2.01-2.07-3.2-.51-1.27-.76-2.63-.75-4-.01-1.37,.23-2.73,.73-4,.47-1.19,1.17-2.28,2.05-3.2,2.84-2.82,7.1-3.65,10.79-2.09,2.21,.96,3.9,2.82,4.67,5.1,.42,1.19,.63,2.45,.62,3.71v1.23h-15.95Zm13-2.2c.23-3.17-2.16-5.93-5.33-6.16-.3-.02-.6-.02-.9,0-.87,0-1.74,.17-2.54,.51-.79,.32-1.52,.79-2.15,1.37-.61,.57-1.11,1.25-1.48,2-.36,.71-.55,1.5-.55,2.3l12.95-.03Z"/><path class="b" d="M568.94,83.34c.8,1.08,1.85,1.96,3.06,2.56,1.31,.67,2.77,1.01,4.24,1,1.19,.03,2.38-.17,3.49-.6,.89-.35,1.68-.9,2.31-1.62,.59-.69,1.03-1.51,1.27-2.39,.26-.96,.4-1.95,.39-2.94v-3.47h-.08c-.77,1.22-1.88,2.19-3.2,2.79-1.26,.55-2.62,.83-4,.82-1.34,0-2.67-.24-3.92-.74-1.18-.46-2.26-1.14-3.18-2-.91-.88-1.64-1.93-2.13-3.1-.53-1.23-.79-2.55-.78-3.89,0-1.34,.24-2.66,.74-3.9,.46-1.17,1.14-2.23,2-3.15,.87-.91,1.91-1.63,3.07-2.11,1.24-.52,2.58-.78,3.92-.76,.61,0,1.22,.06,1.82,.16,.66,.11,1.31,.31,1.93,.58,.68,.3,1.32,.67,1.91,1.12,.67,.52,1.26,1.14,1.76,1.83h.08v-3.23h2.71v19c0,1.12-.14,2.24-.39,3.33-.26,1.18-.78,2.28-1.52,3.23-.83,1.06-1.91,1.9-3.13,2.46-1.65,.73-3.45,1.07-5.25,1-1.76,.03-3.5-.29-5.13-.94-1.56-.67-2.96-1.66-4.1-2.92l2.11-2.12Zm.49-13.69c-.02,2.92,1.68,5.57,4.33,6.78,.88,.4,1.84,.61,2.81,.6,1.91,.02,3.76-.69,5.16-2,.69-.65,1.23-1.44,1.58-2.32,.38-.95,.55-1.98,.51-3,0-.97-.16-1.94-.49-2.85-.31-.87-.8-1.66-1.43-2.34-.65-.68-1.43-1.23-2.3-1.6-.95-.4-1.97-.6-3-.59-.97,0-1.93,.19-2.81,.59-1.71,.76-3.07,2.15-3.79,3.88-.38,.9-.57,1.87-.57,2.85Z"/><path class="b" d="M604.82,67.72v-.49c0-3.33-1.64-5-4.92-5-2.19-.02-4.3,.8-5.9,2.29l-1.64-1.92c1.81-1.86,4.51-2.79,8.12-2.79,.91,0,1.82,.14,2.69,.41,.82,.25,1.59,.68,2.23,1.25,.68,.58,1.23,1.3,1.6,2.11,.4,.95,.59,1.97,.57,3v8.57c0,.74,0,1.51,.1,2.32s.15,1.47,.23,2h-2.62c-.12-.48-.21-.98-.28-1.47,0-.55-.06-1.08-.06-1.6h-.08c-.66,1.16-1.64,2.12-2.81,2.77-1.25,.6-2.62,.89-4,.84-.83,0-1.66-.12-2.46-.35-.76-.22-1.48-.58-2.11-1.06-.61-.48-1.11-1.08-1.47-1.77-.39-.75-.58-1.59-.56-2.44-.07-1.33,.36-2.64,1.21-3.67,.82-.9,1.85-1.59,3-2,1.25-.45,2.56-.72,3.89-.82,1.38-.11,2.65-.17,3.79-.17h1.48Zm-1.4,2.21c-.68,0-1.54,0-2.56,.1-1.01,.06-2.02,.22-3,.49-.88,.23-1.71,.64-2.42,1.21-.67,.55-1.04,1.38-1,2.25-.02,.57,.12,1.12,.39,1.62,.24,.44,.59,.82,1,1.11,.45,.29,.94,.5,1.46,.62,.53,.12,1.07,.18,1.61,.18,.88,.02,1.76-.14,2.57-.49,1.41-.62,2.47-1.83,2.91-3.3,.24-.78,.35-1.59,.35-2.4v-1.39h-1.31Z"/><path class="b" d="M623.72,62.76h-5.54v11.32c-.02,.59,.06,1.17,.21,1.74,.11,.37,.3,.72,.57,1,.24,.25,.55,.43,.88,.52,.37,.1,.75,.14,1.13,.14,.49,0,.97-.07,1.44-.2,.47-.13,.92-.31,1.35-.54l.12,2.5c-1.15,.5-2.4,.74-3.65,.7-.55,0-1.09-.07-1.62-.2-.56-.14-1.09-.41-1.53-.78-.5-.43-.89-.96-1.15-1.56-.33-.82-.48-1.7-.45-2.58v-12.06h-4.06v-2.46h4.06v-5.41h2.7v5.41h5.54v2.46Z"/><path class="b" d="M631.34,52.92c.02,.54-.21,1.05-.61,1.41-.75,.75-1.96,.75-2.71,0-.78-.73-.82-1.95-.09-2.73,.03-.03,.06-.06,.09-.09,.75-.75,1.96-.75,2.71,0,.4,.36,.63,.87,.61,1.41Zm-.61,26.57h-2.73v-19.19h2.71l.02,19.19Z"/><path class="b" d="M645.69,79.49h-3l-7.82-19.19h3.2l6.15,16.15h.08l6.11-16.15h3.07l-7.79,19.19Z"/><path class="b" d="M658.89,70.63c.08,.94,.32,1.85,.7,2.71,.36,.82,.88,1.56,1.52,2.19,.63,.62,1.36,1.12,2.17,1.47,.84,.36,1.75,.54,2.67,.53,1.32,.04,2.62-.31,3.75-1,.96-.59,1.78-1.38,2.4-2.32l2.09,1.72c-1,1.31-2.3,2.36-3.79,3.07-1.38,.64-2.88,.99-4.4,1-1.37,.02-2.73-.24-4-.76-1.18-.48-2.25-1.2-3.14-2.11-.89-.93-1.59-2.01-2.07-3.2-.51-1.27-.77-2.63-.76-4-.01-1.37,.24-2.73,.74-4,.45-1.19,1.13-2.27,2-3.2,2.84-2.82,7.1-3.65,10.79-2.09,2.21,.96,3.9,2.82,4.67,5.1,.41,1.19,.62,2.45,.61,3.71v1.23l-15.95-.05Zm13-2.21c.23-3.17-2.16-5.93-5.33-6.16-.3-.02-.6-.02-.9,0-.87,0-1.74,.17-2.54,.51-.78,.33-1.5,.79-2.12,1.37-.61,.57-1.11,1.25-1.48,2-.36,.71-.55,1.5-.55,2.3l12.92-.03Z"/><path class="b" d="M225.86,96.49v13.78h.08c.16-.42,.4-.81,.7-1.15,.34-.39,.74-.73,1.18-1,.51-.32,1.06-.57,1.64-.74,.65-.19,1.32-.29,2-.29,1.3-.05,2.59,.19,3.78,.72,.92,.45,1.69,1.14,2.23,2,.56,.92,.93,1.94,1.09,3,.19,1.23,.29,2.48,.28,3.73v11h-6.15v-9.76c0-.57,0-1.17-.06-1.78-.03-.58-.15-1.16-.37-1.7-.39-1.16-1.54-1.9-2.76-1.77-.67-.03-1.33,.12-1.93,.43-.47,.27-.87,.67-1.13,1.15-.27,.5-.44,1.05-.51,1.62-.08,.63-.12,1.26-.12,1.89v9.92h-6.15v-31l6.2-.05Z"/><path class="b" d="M255.42,125h-.08c-.65,1.03-1.6,1.83-2.73,2.29-1.14,.47-2.36,.71-3.59,.7-.91,0-1.81-.13-2.68-.39-.83-.24-1.6-.64-2.28-1.17-.66-.52-1.19-1.17-1.56-1.92-.39-.83-.59-1.75-.57-2.67-.03-1.01,.18-2.01,.63-2.91,.41-.79,1.01-1.48,1.73-2,.76-.53,1.59-.94,2.48-1.21,.94-.29,1.91-.5,2.89-.63,.99-.14,2-.22,3-.25h2.77c.04-1-.39-1.97-1.17-2.6-.77-.66-1.76-1.01-2.77-1-.96-.01-1.91,.21-2.77,.64-.85,.43-1.6,1.02-2.23,1.74l-3.28-3.36c1.15-1.07,2.51-1.89,4-2.4,1.53-.53,3.13-.8,4.75-.8,1.51-.05,3.02,.18,4.45,.68,1.09,.4,2.06,1.09,2.79,2,.73,.94,1.23,2.04,1.46,3.21,.29,1.45,.43,2.93,.41,4.41v10.13h-5.66v-2.49Zm-1.51-6.24c-.46,0-1.05,0-1.74,.07-.68,.03-1.35,.15-2,.35-.6,.17-1.16,.46-1.64,.86-.46,.4-.71,.98-.68,1.59-.03,.69,.34,1.33,.95,1.65,.61,.35,1.3,.53,2,.53,.59,0,1.18-.08,1.75-.25,.53-.15,1.03-.38,1.49-.69,.43-.3,.79-.69,1.05-1.15,.27-.5,.4-1.07,.39-1.64v-1.32h-1.57Z"/><path class="b" d="M285.51,127.49h-5.66v-2.63h-.08c-.29,.4-.63,.77-1,1.09-.42,.39-.89,.72-1.4,1-.56,.31-1.15,.55-1.76,.73-.65,.19-1.32,.29-2,.29-1.37,.02-2.73-.24-4-.76-1.17-.48-2.22-1.21-3.09-2.13-.88-.94-1.56-2.05-2-3.26-.47-1.33-.71-2.73-.7-4.14,0-1.36,.21-2.71,.64-4,.39-1.22,1-2.37,1.8-3.38,.77-.98,1.75-1.78,2.85-2.36,1.18-.6,2.49-.91,3.82-.88,1.22-.01,2.43,.19,3.58,.6,1.09,.38,2.04,1.07,2.73,2h.08v-13.17h6.15l.04,31Zm-5.66-10c.06-1.34-.4-2.65-1.29-3.65-2.06-1.86-5.2-1.86-7.26,0-1.72,2.13-1.72,5.16,0,7.29,2.06,1.86,5.2,1.86,7.26,0,.88-.99,1.34-2.28,1.29-3.6v-.04Z"/><path class="b" d="M301.91,107.56h5.9v2.71h.09c.22-.42,.49-.81,.82-1.15,.38-.39,.8-.73,1.27-1,.52-.32,1.09-.57,1.68-.74,.67-.2,1.36-.29,2.05-.29,1.3-.05,2.59,.19,3.77,.72,.92,.44,1.69,1.14,2.23,2,.57,.91,.94,1.94,1.09,3,.2,1.23,.3,2.48,.29,3.73v11h-6.1v-9.76c0-.57,0-1.17-.06-1.78-.03-.58-.16-1.16-.37-1.7-.4-1.16-1.55-1.89-2.77-1.77-.67-.02-1.33,.12-1.93,.43-.47,.27-.86,.67-1.12,1.15-.27,.5-.45,1.05-.52,1.62-.08,.63-.12,1.26-.12,1.89v9.92h-6.15l-.05-19.98Z"/><path class="b" d="M324.38,117.53c-.02-1.48,.27-2.95,.86-4.31,.55-1.25,1.35-2.37,2.36-3.3,1.02-.93,2.22-1.65,3.52-2.11,2.8-.99,5.85-.99,8.65,0,1.31,.46,2.51,1.18,3.53,2.11,1,.93,1.81,2.05,2.36,3.3,1.15,2.76,1.15,5.85,0,8.61-.55,1.25-1.36,2.37-2.36,3.3-1.02,.93-2.22,1.65-3.53,2.11-2.8,.99-5.85,.99-8.65,0-1.3-.46-2.5-1.18-3.52-2.11-1.01-.92-1.81-2.05-2.36-3.3-.59-1.36-.88-2.82-.86-4.3Zm6.15,0c-.06,1.34,.4,2.64,1.29,3.64,2.06,1.86,5.2,1.86,7.26,0,1.72-2.13,1.72-5.16,0-7.29-2.06-1.86-5.2-1.86-7.26,0-.89,1-1.35,2.31-1.29,3.65Z"/><path class="b" d="M375.09,114c-.33-.46-.76-.84-1.27-1.09-.54-.28-1.15-.43-1.76-.43-1.36-.08-2.68,.43-3.63,1.4-1.72,2.13-1.72,5.16,0,7.29,.95,.97,2.27,1.48,3.63,1.4,.62,.02,1.23-.14,1.76-.45,.48-.29,.91-.65,1.27-1.07l4.06,4.27c-.93,.97-2.1,1.68-3.38,2.07-1.2,.38-2.45,.57-3.71,.59-1.48,0-2.94-.24-4.33-.74-1.3-.46-2.5-1.18-3.52-2.11-1.01-.92-1.81-2.05-2.36-3.3-1.15-2.76-1.15-5.85,0-8.61,.55-1.25,1.35-2.37,2.36-3.3,1.02-.93,2.22-1.65,3.52-2.11,2.58-.93,5.39-.98,8-.14,1.29,.38,2.45,1.1,3.38,2.07l-4.02,4.26Z"/><path class="b" d="M393.54,125h-.08c-.64,1.03-1.6,1.84-2.73,2.29-1.99,.81-4.21,.92-6.27,.31-.82-.24-1.6-.64-2.27-1.17-.66-.52-1.19-1.17-1.56-1.92-.4-.83-.59-1.75-.58-2.67-.03-1.01,.19-2.01,.64-2.91,.41-.79,1-1.48,1.72-2,.76-.53,1.59-.94,2.48-1.21,.94-.29,1.91-.5,2.89-.63,.99-.14,2-.22,3-.25h2.76c.04-1-.39-1.96-1.16-2.6-.77-.66-1.76-1.01-2.77-1-.96-.01-1.91,.21-2.77,.64-.85,.43-1.61,1.02-2.23,1.74l-3.28-3.36c1.15-1.07,2.51-1.89,4-2.4,1.53-.53,3.14-.8,4.76-.8,1.51-.05,3.02,.19,4.45,.68,1.09,.4,2.06,1.09,2.79,2,.73,.94,1.22,2.04,1.45,3.21,.29,1.45,.43,2.93,.41,4.41v10.13h-5.66v-2.49Zm-1.53-6.25c-.47,0-1,0-1.75,.07-.68,.04-1.35,.15-2,.35-.6,.17-1.16,.46-1.64,.86-.45,.4-.7,.99-.67,1.59-.03,.69,.33,1.33,.94,1.65,.61,.35,1.3,.53,2,.53,.59,0,1.18-.08,1.74-.25,.53-.15,1.04-.38,1.5-.69,.41-.31,.75-.7,1-1.15,.27-.5,.4-1.07,.39-1.64v-1.32h-1.51Z"/><path class="b" d="M402.73,107.56h5.9v2.71h.08c.22-.42,.49-.81,.82-1.15,.38-.39,.8-.72,1.27-1,1.13-.67,2.43-1.02,3.74-1,1.3-.05,2.58,.19,3.77,.72,.92,.45,1.69,1.14,2.23,2,.56,.92,.93,1.94,1.09,3,.2,1.23,.3,2.48,.29,3.73v11h-6.16v-9.76c0-.57,0-1.17-.06-1.78-.03-.58-.15-1.16-.37-1.7-.39-1.16-1.54-1.9-2.76-1.77-.67-.03-1.33,.12-1.93,.43-.47,.27-.87,.67-1.13,1.15-.27,.5-.44,1.05-.51,1.62-.08,.63-.12,1.26-.12,1.89v9.92h-6.15v-20.01Z"/><path class="b" d="M439.42,114c-.33-.46-.76-.84-1.27-1.09-.54-.28-1.15-.43-1.76-.43-1.36-.08-2.68,.43-3.63,1.4-1.72,2.13-1.72,5.16,0,7.29,.95,.97,2.27,1.48,3.63,1.4,.62,.02,1.23-.14,1.76-.45,.48-.29,.91-.65,1.27-1.07l4.06,4.27c-.93,.97-2.1,1.68-3.38,2.07-1.2,.38-2.45,.57-3.71,.59-1.48,0-2.94-.24-4.33-.74-1.3-.46-2.5-1.18-3.52-2.11-1.01-.92-1.81-2.05-2.36-3.3-1.15-2.76-1.15-5.85,0-8.61,.55-1.25,1.35-2.37,2.36-3.3,1.02-.93,2.22-1.65,3.52-2.11,2.58-.93,5.39-.98,8-.14,1.29,.38,2.45,1.1,3.38,2.07l-4.02,4.26Z"/><path class="b" d="M464.23,124c-.99,1.26-2.28,2.26-3.74,2.92-1.47,.67-3.06,1.01-4.67,1-1.47,0-2.93-.24-4.32-.74-1.31-.46-2.51-1.18-3.53-2.11-1-.93-1.81-2.05-2.36-3.3-1.15-2.76-1.15-5.85,0-8.61,.55-1.25,1.36-2.37,2.36-3.3,1.02-.93,2.22-1.65,3.53-2.11,1.39-.5,2.85-.75,4.32-.74,1.33-.02,2.65,.24,3.88,.74,1.13,.47,2.14,1.19,2.95,2.11,.83,.97,1.46,2.09,1.86,3.3,.46,1.39,.68,2.85,.66,4.31v1.92h-14.27c.2,1.09,.76,2.08,1.6,2.81,.85,.68,1.91,1.04,3,1,.9,.03,1.8-.21,2.57-.68,.71-.47,1.32-1.05,1.82-1.74l4.34,3.22Zm-5.23-8.73c.05-.99-.31-1.95-1-2.66-.71-.74-1.71-1.15-2.74-1.11-.62-.01-1.24,.1-1.81,.33-.49,.2-.94,.48-1.33,.84-.37,.33-.66,.74-.86,1.19-.21,.44-.32,.92-.35,1.41h8.09Z"/><path class="b" d="M468.57,107.56h6.15v3.2h.08c.55-1.1,1.35-2.05,2.34-2.77,1.02-.64,2.2-.96,3.4-.92h1.07c.34,.02,.67,.08,1,.17v5.61c-.42-.13-.85-.24-1.29-.31-.44-.06-.88-.1-1.33-.1-.95-.04-1.91,.13-2.79,.49-.65,.3-1.2,.78-1.58,1.38-.39,.64-.63,1.36-.71,2.11-.12,.9-.17,1.8-.17,2.71v8.32h-6.15l-.02-19.89Z"/><path class="b" d="M219,214.53c-.02-1.48,.27-2.95,.86-4.31,.55-1.25,1.35-2.37,2.36-3.3,1.02-.93,2.22-1.65,3.52-2.11,2.8-.99,5.85-.99,8.65,0,1.31,.46,2.51,1.18,3.53,2.11,1,.93,1.81,2.05,2.36,3.3,1.15,2.76,1.15,5.85,0,8.61-.55,1.25-1.36,2.37-2.36,3.3-1.02,.93-2.22,1.65-3.53,2.11-2.8,.99-5.85,.99-8.65,0-1.3-.46-2.5-1.18-3.52-2.11-1.01-.92-1.81-2.05-2.36-3.3-.59-1.36-.88-2.82-.86-4.3Zm6.15,0c-.06,1.34,.4,2.64,1.29,3.64,2.06,1.86,5.2,1.86,7.26,0,1.72-2.13,1.72-5.16,0-7.29-2.06-1.86-5.2-1.86-7.26,0-.9,1-1.37,2.31-1.32,3.65h.03Z"/><path class="b" d="M246.85,209.48h-4.06v-4.92h4.06v-3.56c0-1.04,.09-2.08,.28-3.1,.18-.92,.56-1.8,1.11-2.56,.61-.79,1.43-1.39,2.36-1.74,1.28-.47,2.64-.69,4-.64,.63,0,1.24,0,1.84,.08,.6,.06,1.19,.15,1.77,.29l-.29,5.21c-.33-.13-.66-.23-1-.31-.33-.07-.66-.1-1-.1-.79-.06-1.57,.16-2.21,.63-.6,.73-.87,1.68-.74,2.61v3.15h4.55v4.92h-4.52v15h-6.15v-14.96Z"/><path class="b" d="M272.6,204.56h5.65v2.63h.09c.29-.4,.62-.77,1-1.09,.42-.39,.89-.72,1.39-1,.55-.31,1.14-.56,1.75-.74,.65-.2,1.32-.29,2-.29,1.37-.02,2.73,.24,4,.76,1.18,.48,2.23,1.2,3.1,2.13,.88,.94,1.56,2.05,2,3.26,.47,1.33,.7,2.73,.69,4.14,0,1.36-.21,2.71-.63,4-.4,1.22-1.01,2.37-1.81,3.38-.76,.98-1.73,1.78-2.83,2.36-1.18,.6-2.49,.91-3.81,.88-1.22,0-2.44-.19-3.59-.59-1.08-.38-2.03-1.08-2.72-2h-.08v11.48h-6.2v-29.31Zm5.65,10c-.06,1.34,.4,2.64,1.29,3.64,2.06,1.86,5.2,1.86,7.26,0,1.72-2.13,1.72-5.16,0-7.29-2.06-1.86-5.2-1.86-7.26,0-.88,1-1.34,2.29-1.29,3.62v.03Z"/><path class="b" d="M316.71,221c-.97,1.29-2.25,2.32-3.71,3-1.47,.67-3.06,1.01-4.67,1-1.48,0-2.94-.24-4.33-.74-1.31-.46-2.51-1.18-3.53-2.11-1-.93-1.8-2.05-2.35-3.3-1.15-2.76-1.15-5.85,0-8.61,.55-1.25,1.35-2.37,2.35-3.3,1.02-.93,2.22-1.65,3.53-2.11,1.39-.5,2.85-.75,4.33-.74,1.33-.02,2.64,.24,3.87,.74,1.13,.47,2.14,1.19,2.95,2.11,.83,.97,1.47,2.09,1.87,3.3,.45,1.39,.67,2.85,.65,4.31v1.92h-14.28c.2,1.09,.76,2.08,1.6,2.81,.84,.7,1.91,1.08,3,1.05,.9,.03,1.79-.21,2.56-.68,.71-.46,1.33-1.05,1.83-1.74l4.33,3.09Zm-5.21-8.77c.06-.99-.31-1.95-1-2.66-.72-.74-1.72-1.15-2.75-1.11-.62-.01-1.23,.1-1.8,.33-.49,.19-.94,.48-1.33,.84-.37,.33-.66,.74-.87,1.19-.2,.44-.32,.92-.34,1.41h8.09Z"/><path class="b" d="M320.65,214.53c-.02-1.48,.27-2.95,.86-4.31,.55-1.25,1.35-2.37,2.36-3.3,1.02-.93,2.22-1.65,3.52-2.11,2.8-.99,5.85-.99,8.65,0,1.31,.46,2.51,1.18,3.53,2.11,1,.93,1.81,2.05,2.36,3.3,1.15,2.76,1.15,5.85,0,8.61-.55,1.25-1.36,2.37-2.36,3.3-1.02,.93-2.22,1.65-3.53,2.11-2.8,.99-5.85,.99-8.65,0-1.3-.46-2.5-1.18-3.52-2.11-1.01-.92-1.81-2.05-2.36-3.3-.59-1.36-.88-2.82-.86-4.3Zm6.15,0c-.06,1.34,.4,2.64,1.29,3.64,2.06,1.87,5.19,1.87,7.25,0,1.73-2.12,1.73-5.17,0-7.29-2.06-1.87-5.19-1.87-7.25,0-.89,1-1.35,2.31-1.29,3.65Z"/><path class="b" d="M347,204.56h5.66v2.63h.08c.29-.4,.62-.77,1-1.09,.42-.39,.89-.72,1.4-1,.55-.31,1.13-.56,1.74-.74,.65-.19,1.32-.29,2-.29,1.37-.02,2.73,.24,4,.76,1.18,.48,2.23,1.2,3.1,2.13,.88,.94,1.56,2.05,2,3.26,.47,1.33,.71,2.73,.7,4.14,0,1.36-.21,2.71-.64,4-.39,1.22-1,2.37-1.8,3.38-.77,.98-1.74,1.78-2.85,2.36-1.18,.6-2.49,.9-3.82,.88-1.22,0-2.43-.19-3.58-.59-1.09-.38-2.04-1.08-2.73-2h-.08v11.48h-6.18v-29.31Zm5.66,10c-.06,1.34,.4,2.64,1.29,3.64,2.06,1.87,5.19,1.87,7.25,0,1.73-2.12,1.73-5.17,0-7.29-2.06-1.87-5.19-1.87-7.25,0-.89,.99-1.36,2.29-1.32,3.62l.03,.03Z"/><path class="b" d="M372.31,193.49h6.15v31h-6.15v-31Z"/><path class="b" d="M401.74,221c-.98,1.29-2.27,2.32-3.74,3-1.47,.67-3.06,1.01-4.67,1-1.48,0-2.94-.24-4.33-.74-1.3-.46-2.5-1.18-3.52-2.11-1.01-.92-1.81-2.05-2.36-3.3-1.15-2.76-1.15-5.85,0-8.61,.55-1.25,1.35-2.37,2.36-3.3,1.02-.93,2.22-1.65,3.52-2.11,1.39-.5,2.85-.75,4.33-.74,1.33-.02,2.64,.24,3.87,.74,1.15,.46,2.18,1.18,3,2.11,.83,.97,1.47,2.09,1.87,3.3,.46,1.39,.68,2.85,.66,4.31v1.92h-14.31c.2,1.09,.76,2.08,1.6,2.81,.84,.7,1.91,1.08,3,1.05,.9,.03,1.79-.21,2.56-.68,.71-.46,1.33-1.05,1.83-1.74l4.33,3.09Zm-5.2-8.77c.05-.99-.31-1.95-1-2.66-.72-.74-1.72-1.15-2.75-1.11-.62-.01-1.23,.1-1.8,.33-.49,.2-.94,.48-1.33,.84-.37,.33-.66,.74-.86,1.19-.21,.44-.32,.92-.35,1.41h8.09Z"/><path class="b" d="M420.15,205.3l4.43,15.58h.08l5.13-15.58h2.78l5.13,15.58h.08l4.43-15.58h3.2l-6.07,19.19h-3l-5.08-15.75h-.08l-5.09,15.75h-3l-6.09-19.19h3.15Z"/><path class="b" d="M452.87,197.92c.01,.54-.21,1.06-.62,1.41-.75,.75-1.95,.75-2.7,0-.78-.71-.83-1.92-.12-2.7,.04-.04,.08-.08,.12-.12,.75-.75,1.95-.75,2.7,0,.41,.36,.63,.87,.62,1.41Zm-.62,26.57h-2.7v-19.19h2.7v19.19Z"/><path class="b" d="M468.69,207.76h-5.53v11.32c-.01,.59,.05,1.17,.2,1.74,.11,.38,.31,.72,.58,1,.24,.25,.55,.43,.88,.52,.37,.1,.75,.14,1.13,.14,.48,0,.96-.07,1.43-.2,.47-.13,.93-.31,1.36-.54l.12,2.5c-1.15,.5-2.4,.74-3.65,.7-.55,0-1.09-.07-1.62-.2-.56-.14-1.09-.41-1.54-.78-.49-.43-.88-.96-1.15-1.56-.33-.82-.48-1.7-.45-2.58v-12.1h-4.06v-2.42h4.06v-5.41h2.71v5.41h5.53v2.46Z"/><path class="b" d="M472.38,193.49h2.71v14.89h.08c.31-.53,.7-1.02,1.15-1.44,.47-.44,.99-.82,1.56-1.13,.58-.31,1.19-.56,1.82-.73,.62-.18,1.26-.27,1.91-.27,2.46,0,4.28,.65,5.45,1.95,1.26,1.56,1.89,3.54,1.76,5.55v12.18h-2.7v-10.62c.09-1.7-.29-3.38-1.12-4.87-.74-1.13-2.1-1.7-4.1-1.7-.39,.03-.77,.08-1.15,.16-.73,.15-1.41,.46-2,.9-.78,.59-1.42,1.35-1.87,2.22-.61,1.28-.89,2.69-.82,4.1v9.84h-2.71l.03-31.03Z"/><path class="b" d="M524,224.49h-18.41v-3.41l11.57-11.76c.43-.44,.87-.9,1.31-1.4,.43-.49,.83-1.01,1.19-1.55,.35-.54,.64-1.12,.86-1.73,.22-.6,.33-1.24,.33-1.88,0-.73-.14-1.46-.43-2.13-.28-.62-.69-1.16-1.21-1.6-.54-.44-1.15-.78-1.81-1-.7-.23-1.43-.35-2.17-.35-1.36-.04-2.69,.4-3.77,1.23-1.04,.83-1.75,2.02-2,3.33l-3.12-.33c.33-2.01,1.4-3.83,3-5.09,1.63-1.23,3.62-1.87,5.66-1.82,1.13,0,2.26,.15,3.35,.47,1.01,.29,1.95,.77,2.78,1.41,.81,.63,1.47,1.44,1.93,2.36,.5,1.03,.75,2.16,.72,3.3,.01,1.05-.16,2.09-.51,3.08-.34,.92-.79,1.8-1.34,2.62-.55,.83-1.18,1.61-1.86,2.34-.7,.74-1.42,1.46-2.16,2.17l-9.14,9.06h15.23v2.68Z"/><path class="b" d="M220.49,253.3h2.7v3.2h.08c.42-.64,.95-1.21,1.56-1.68,.58-.46,1.22-.84,1.89-1.15,.64-.3,1.31-.52,2-.66,2.05-.4,4.17-.2,6.11,.56,2.43,.97,4.35,2.89,5.33,5.31,.99,2.57,.99,5.43,0,8-.98,2.42-2.9,4.34-5.33,5.31-1.31,.52-2.71,.78-4.12,.76-.67,0-1.34-.07-2-.21-.69-.13-1.36-.35-2-.65-.67-.31-1.31-.69-1.89-1.15-.61-.47-1.14-1.04-1.56-1.68h-.08v15h-2.7v-30.96Zm17.51,9.59c0-1.02-.16-2.04-.51-3-.32-.89-.82-1.72-1.46-2.42-.64-.69-1.41-1.24-2.27-1.62-.95-.4-1.97-.6-3-.59-1.06-.01-2.1,.19-3.08,.59-.9,.38-1.72,.93-2.42,1.62-.69,.69-1.23,1.52-1.6,2.42-.76,1.93-.76,4.07,0,6,.37,.9,.91,1.73,1.6,2.42,.7,.69,1.52,1.24,2.42,1.62,.98,.4,2.02,.6,3.08,.59,1.03,.01,2.05-.19,3-.59,.86-.38,1.63-.93,2.27-1.62,.64-.7,1.14-1.53,1.46-2.42,.35-.96,.52-1.98,.52-3h0Z"/><path class="b" d="M264.93,262.89c.01,1.37-.25,2.73-.76,4-.97,2.43-2.9,4.35-5.33,5.31-1.31,.52-2.71,.78-4.12,.76-1.4,.02-2.78-.24-4.08-.76-1.21-.48-2.3-1.2-3.22-2.11-.91-.92-1.63-2-2.11-3.2-1-2.57-1-5.43,0-8,.48-1.2,1.2-2.28,2.11-3.2,.92-.91,2.01-1.63,3.22-2.11,1.3-.52,2.68-.78,4.08-.76,1.41-.02,2.81,.24,4.12,.76,2.43,.96,4.36,2.88,5.33,5.31,.51,1.27,.77,2.63,.76,4Zm-2.95,0c.01-1.02-.17-2.04-.52-3-.32-.89-.81-1.72-1.45-2.42-.64-.69-1.42-1.24-2.28-1.62-1.92-.78-4.08-.78-6,0-.86,.38-1.63,.93-2.26,1.62-.64,.71-1.14,1.53-1.47,2.43-.7,1.94-.7,4.06,0,6,.32,.89,.8,1.71,1.43,2.42,.63,.69,1.4,1.24,2.26,1.62,1.92,.78,4.08,.78,6,0,.86-.38,1.64-.93,2.28-1.62,.64-.7,1.13-1.53,1.45-2.42,.38-.96,.57-1.98,.58-3.01h-.02Z"/><path class="b" d="M280,257.85c-.38-.76-.95-1.41-1.64-1.89-.75-.48-1.62-.72-2.5-.69-.48,0-.95,.05-1.42,.16-.45,.1-.89,.27-1.29,.51-.37,.22-.68,.53-.92,.89-.24,.39-.36,.85-.35,1.31-.07,.79,.29,1.55,.94,2,.88,.51,1.84,.86,2.83,1.06l2.75,.66c1.27,.26,2.43,.9,3.34,1.82,.89,.92,1.37,2.15,1.33,3.43,.02,.93-.19,1.86-.63,2.68-.41,.73-.99,1.37-1.68,1.85-.73,.48-1.55,.81-2.4,1-.9,.22-1.82,.33-2.75,.33-1.42,.01-2.82-.27-4.12-.84-1.35-.62-2.48-1.63-3.26-2.89l2.34-1.6c.52,.85,1.23,1.56,2.07,2.09,.9,.54,1.95,.81,3,.78,.55,0,1.1-.06,1.64-.18,.51-.12,1.01-.31,1.46-.58,.41-.25,.75-.59,1-1,.27-.43,.4-.93,.39-1.44,.06-.84-.35-1.63-1.07-2.07-.81-.46-1.67-.8-2.58-1l-2.62-.62c-.33-.08-.78-.22-1.34-.41-.59-.21-1.14-.5-1.64-.86-.55-.4-1.02-.91-1.37-1.5-.4-.69-.6-1.47-.57-2.27-.02-.9,.18-1.78,.59-2.58,.38-.72,.93-1.34,1.6-1.81,.7-.46,1.47-.8,2.28-1,.85-.23,1.73-.35,2.62-.35,1.28-.01,2.56,.25,3.73,.78,1.17,.55,2.12,1.49,2.67,2.66l-2.43,1.57Z"/><path class="b" d="M291.25,245.92c.02,.54-.21,1.06-.61,1.42-.37,.35-.85,.55-1.36,.55-.5,0-.99-.2-1.35-.55-.41-.36-.63-.88-.62-1.42-.01-.54,.21-1.06,.62-1.41,.36-.35,.85-.55,1.35-.56,.51,0,.99,.21,1.36,.56,.4,.36,.63,.87,.61,1.41Zm-.61,26.57h-2.71v-19.19h2.71v19.19Z"/><path class="b" d="M307.08,255.76h-5.54v11.32c-.02,.59,.06,1.17,.21,1.74,.1,.38,.3,.72,.57,1,.24,.25,.55,.43,.88,.52,.37,.1,.75,.14,1.13,.14,.48,0,.96-.07,1.43-.2,.47-.13,.93-.31,1.36-.54l.12,2.5c-1.15,.5-2.4,.74-3.65,.7-.55,0-1.09-.07-1.62-.21-.57-.14-1.09-.4-1.54-.77-.49-.43-.88-.96-1.14-1.56-.33-.82-.48-1.7-.45-2.59v-12.05h-4.06v-2.46h4.06v-5.41h2.7v5.41h5.54v2.46Z"/><path class="b" d="M314.7,245.92c.02,.54-.21,1.06-.61,1.42-.75,.74-1.96,.74-2.71,0-.4-.36-.63-.88-.61-1.42-.02-.54,.21-1.05,.61-1.41,.75-.75,1.96-.75,2.71,0,.4,.36,.63,.87,.61,1.41Zm-.61,26.57h-2.71v-19.19h2.71v19.19Z"/><path class="b" d="M329.05,272.49h-3l-7.79-19.19h3.2l6.15,16.15h.08l6.11-16.15h3.07l-7.82,19.19Z"/><path class="b" d="M342.25,263.63c.08,.94,.31,1.85,.7,2.71,.36,.82,.88,1.56,1.52,2.19,.63,.62,1.36,1.11,2.17,1.46,.84,.36,1.75,.54,2.67,.53,1.32,.03,2.62-.31,3.75-1,.96-.59,1.78-1.38,2.4-2.32l2.09,1.72c-1,1.33-2.3,2.4-3.8,3.12-1.39,.63-2.91,.95-4.44,.94-1.37,.02-2.73-.24-4-.76-1.18-.48-2.25-1.2-3.14-2.11-.89-.93-1.59-2.01-2.07-3.2-.51-1.27-.77-2.63-.76-4-.01-1.37,.24-2.73,.74-4,.47-1.19,1.16-2.28,2.05-3.2,1.81-1.86,4.3-2.89,6.89-2.87,1.34-.02,2.66,.24,3.89,.78,1.1,.48,2.08,1.19,2.89,2.07,.79,.87,1.4,1.89,1.79,3,.41,1.19,.62,2.45,.61,3.71v1.23h-15.95Zm13-2.21c.07-1.64-.52-3.25-1.64-4.45-1.22-1.18-2.89-1.8-4.59-1.7-.87,0-1.74,.17-2.54,.51-.79,.32-1.52,.79-2.15,1.37-.61,.57-1.11,1.25-1.48,2-.36,.71-.56,1.5-.56,2.3l12.96-.03Z"/><path class="b" d="M384.85,272.49h-3v-26.32h-9.72v-2.71h22.39v2.71h-9.72l.05,26.32Z"/><path class="b" d="M408.39,272.49h-3v-26.32h-9.71v-2.71h22.42v2.71h-9.71v26.32Z"/><path class="b" d="M436.92,267.08l9.8-23.62h4.51v29h-3v-25.06h-.08l-10.5,25.09h-1.56l-10.44-25.09h-.09v25.09h-2.95v-29h4.51l9.8,23.59Z"/><path class="b" d="M467.55,268.06h.08l9.51-24.6h3.2l-11.32,29h-2.95l-11-29h3.28l9.2,24.6Z"/><path class="b" d="M494.85,259.29c0-.85,0-1.71-.06-2.59s-.07-2-.1-3.4h2.67v3.57h.08c.2-.54,.47-1.04,.82-1.5,.36-.49,.8-.93,1.29-1.29,.53-.4,1.13-.71,1.76-.92,.74-.24,1.51-.36,2.28-.35,.67,0,1.35,.07,2,.24l-.54,2.67c-.5-.16-1.03-.23-1.56-.2-.92-.03-1.84,.17-2.66,.59-.71,.37-1.34,.89-1.84,1.52-.49,.59-.86,1.27-1.09,2-.22,.66-.34,1.35-.35,2.05v10.83h-2.71v-13.22Z"/><path class="b" d="M509.33,263.63c.07,.94,.31,1.85,.69,2.71,.73,1.64,2.05,2.94,3.69,3.65,.84,.36,1.75,.54,2.67,.53,1.32,.04,2.62-.31,3.75-1,.96-.59,1.78-1.38,2.4-2.32l2.09,1.72c-1,1.33-2.3,2.4-3.79,3.12-1.4,.63-2.92,.95-4.45,.94-1.37,.02-2.73-.24-4-.76-1.18-.48-2.24-1.2-3.13-2.11-.89-.92-1.6-2.01-2.07-3.2-.51-1.27-.77-2.63-.76-4-.01-1.37,.24-2.73,.74-4,.46-1.19,1.16-2.28,2.05-3.2,.87-.9,1.91-1.62,3.07-2.11,1.2-.51,2.5-.77,3.81-.76,1.34-.02,2.67,.24,3.9,.78,1.1,.48,2.08,1.19,2.89,2.07,.79,.87,1.39,1.89,1.78,3,.42,1.19,.63,2.45,.62,3.71v1.23h-15.95Zm13-2.21c.23-3.17-2.16-5.93-5.33-6.16-.3-.02-.6-.02-.91,0-.87,0-1.74,.17-2.54,.51-.79,.32-1.52,.79-2.15,1.37-.61,.57-1.11,1.25-1.48,2-.36,.71-.55,1.5-.55,2.3l12.96-.03Z"/><path class="b" d="M540.41,257.85c-.38-.76-.95-1.41-1.64-1.89-.75-.48-1.62-.72-2.51-.69-.47,0-.95,.05-1.41,.16-.45,.1-.89,.27-1.29,.51-.37,.22-.69,.53-.92,.89-.25,.39-.37,.85-.35,1.31-.07,.79,.29,1.55,.94,2,.88,.51,1.84,.86,2.83,1.06l2.75,.66c1.27,.26,2.43,.9,3.34,1.82,.89,.92,1.37,2.15,1.33,3.43,.03,.93-.2,1.86-.64,2.68-.41,.74-.98,1.37-1.68,1.85-.73,.48-1.54,.82-2.39,1-.91,.23-1.84,.35-2.77,.36-1.42,.01-2.82-.27-4.12-.84-1.35-.62-2.48-1.63-3.26-2.89l2.34-1.6c.52,.85,1.23,1.56,2.07,2.09,.9,.54,1.95,.81,3,.78,.55,0,1.1-.06,1.64-.18,.51-.11,1-.31,1.45-.58,.41-.25,.75-.59,1-1,.27-.43,.4-.93,.39-1.44,.06-.84-.35-1.63-1.07-2.07-.81-.46-1.67-.8-2.58-1l-2.63-.62c-.32-.08-.77-.22-1.33-.41-.59-.21-1.14-.5-1.64-.86-.55-.4-1.02-.91-1.37-1.5-.4-.69-.6-1.47-.58-2.27-.02-.9,.18-1.78,.6-2.58,.38-.72,.93-1.34,1.6-1.81,.7-.46,1.46-.8,2.27-1,.86-.23,1.74-.35,2.63-.35,1.28-.01,2.56,.25,3.73,.78,1.17,.54,2.12,1.49,2.66,2.66l-2.39,1.54Z"/><path class="b" d="M561.56,272.49c0-.52-.09-1-.1-1.54s0-1,0-1.54h-.08c-.32,.53-.7,1.01-1.15,1.44-.47,.44-1,.82-1.56,1.13-.58,.31-1.19,.56-1.82,.73-.62,.18-1.26,.27-1.91,.27-2.46,0-4.28-.67-5.45-2-1.27-1.56-1.9-3.54-1.77-5.55v-12.13h2.71v10.62c-.01,.95,.07,1.9,.25,2.83,.13,.74,.41,1.45,.84,2.07,.4,.57,.95,1.01,1.59,1.27,.81,.31,1.67,.46,2.53,.43,.38-.03,.76-.08,1.14-.16,.73-.15,1.41-.46,2-.91,.78-.59,1.42-1.34,1.87-2.21,.61-1.28,.89-2.69,.82-4.1v-9.84h2.7v15c0,.51,0,1.17,.07,2s.08,1.55,.14,2.26l-2.82-.07Z"/><path class="b" d="M573.82,272.49h-2.71v-31h2.71v31Z"/><path class="b" d="M590.26,255.76h-5.53v11.32c-.02,.59,.05,1.17,.2,1.74,.11,.37,.3,.72,.57,1,.25,.25,.55,.43,.89,.52,.37,.1,.74,.14,1.12,.14,.49,0,.97-.07,1.44-.2,.47-.13,.92-.31,1.35-.54l.12,2.5c-1.15,.5-2.39,.74-3.64,.7-.55,0-1.09-.07-1.62-.21-.57-.13-1.09-.4-1.54-.77-.5-.42-.89-.96-1.15-1.56-.33-.82-.48-1.7-.45-2.59v-12.05h-4.02v-2.46h4v-5.41h2.71v5.41h5.53l.02,2.46Z"/><path class="b" d="M604.12,257.85c-.38-.76-.95-1.41-1.64-1.89-.75-.48-1.62-.72-2.5-.69-.48,0-.95,.05-1.42,.16-.45,.1-.89,.27-1.29,.51-.37,.22-.68,.53-.92,.89-.24,.39-.36,.85-.35,1.31-.07,.79,.29,1.55,.94,2,.88,.51,1.84,.86,2.83,1.06l2.75,.66c1.27,.26,2.43,.9,3.34,1.82,.89,.92,1.37,2.15,1.33,3.43,.02,.93-.19,1.86-.63,2.68-.41,.73-.99,1.37-1.68,1.85-.73,.48-1.55,.81-2.4,1-.9,.22-1.82,.33-2.75,.33-1.42,.01-2.82-.27-4.12-.84-1.35-.62-2.48-1.63-3.26-2.89l2.34-1.6c.52,.85,1.23,1.56,2.07,2.09,.9,.54,1.95,.81,3,.78,.55,0,1.1-.06,1.64-.18,.51-.12,1.01-.31,1.46-.58,.41-.25,.75-.59,1-1,.27-.43,.4-.93,.39-1.44,.06-.84-.35-1.64-1.07-2.07-.81-.46-1.67-.8-2.58-1l-2.62-.62c-.33-.08-.77-.22-1.33-.41-.59-.2-1.14-.49-1.64-.86-.56-.4-1.03-.91-1.38-1.5-.4-.69-.6-1.47-.57-2.27-.02-.9,.18-1.78,.59-2.58,.38-.72,.93-1.34,1.6-1.81,.7-.46,1.47-.8,2.28-1,.85-.23,1.73-.35,2.62-.35,1.28-.01,2.56,.25,3.73,.78,1.17,.55,2.12,1.49,2.67,2.66l-2.43,1.57Z"/><path class="b" d="M225.86,289.49v13.78h.08c.16-.42,.4-.81,.7-1.15,.34-.39,.74-.73,1.18-1,.51-.32,1.06-.57,1.64-.74,.65-.19,1.32-.29,2-.29,1.3-.05,2.59,.19,3.78,.72,.92,.45,1.69,1.14,2.23,2,.56,.92,.93,1.94,1.09,3,.19,1.23,.29,2.48,.28,3.73v11h-6.15v-9.76c0-.57,0-1.17-.06-1.78-.03-.58-.16-1.16-.37-1.7-.39-1.16-1.54-1.9-2.76-1.77-.67-.03-1.33,.12-1.93,.43-.47,.27-.87,.67-1.13,1.15-.27,.5-.44,1.05-.51,1.62-.08,.63-.12,1.26-.12,1.89v9.92h-6.15v-31l6.2-.05Z"/><path class="b" d="M255.75,318h-.09c-.64,1.03-1.59,1.83-2.72,2.29-2,.81-4.21,.92-6.28,.31-.82-.24-1.6-.64-2.27-1.17-.66-.52-1.19-1.17-1.56-1.92-.39-.83-.59-1.75-.57-2.67-.03-1.01,.18-2.01,.63-2.91,.41-.79,1-1.47,1.72-2,.76-.53,1.59-.94,2.48-1.21,.94-.29,1.91-.5,2.89-.63,.99-.14,2-.22,3-.25h2.77c.04-1-.39-1.97-1.17-2.6-.77-.66-1.76-1.01-2.77-1-.96-.01-1.91,.21-2.77,.64-.85,.43-1.61,1.02-2.23,1.74l-3.28-3.36c1.15-1.07,2.51-1.89,4-2.4,1.53-.53,3.13-.8,4.75-.8,1.51-.05,3.02,.18,4.45,.68,1.09,.4,2.06,1.09,2.79,2,.74,.95,1.25,2.07,1.48,3.26,.29,1.45,.43,2.93,.41,4.41v10.13h-5.65v-2.54Zm-1.53-6.23c-.47,0-1,0-1.74,.06-.68,.03-1.35,.15-2,.35-.6,.16-1.16,.46-1.64,.86-.46,.4-.71,.98-.68,1.59-.03,.69,.33,1.33,.94,1.65,.61,.35,1.3,.53,2,.53,.59,0,1.18-.08,1.74-.25,.54-.15,1.04-.38,1.5-.7,.43-.29,.79-.68,1.05-1.14,.27-.5,.4-1.07,.39-1.64v-1.31h-1.56Z"/><path class="b" d="M286.17,320.49h-5.66v-2.63h-.08c-.62,.86-1.43,1.58-2.36,2.09-.56,.32-1.15,.56-1.76,.74-.65,.19-1.32,.29-2,.29-1.37,.02-2.73-.24-4-.76-1.17-.48-2.23-1.21-3.1-2.13-.88-.94-1.56-2.05-2-3.26-.48-1.33-.72-2.73-.7-4.14,0-1.36,.21-2.71,.63-4,.4-1.22,1.01-2.37,1.81-3.38,.77-.98,1.75-1.78,2.85-2.36,1.18-.6,2.49-.91,3.81-.88,1.22-.01,2.44,.19,3.59,.6,1.09,.38,2.04,1.08,2.73,2h.07v-13.2h6.15l.02,31.02Zm-5.66-10c.06-1.33-.4-2.64-1.29-3.64-2.06-1.86-5.2-1.86-7.26,0-1.72,2.12-1.72,5.17,0,7.29,2.06,1.86,5.2,1.86,7.26,0,.88-.99,1.35-2.29,1.29-3.62v-.03Z"/><path class="b" d="M303.22,300.56h6.15v3.2h.08c.55-1.1,1.35-2.05,2.34-2.77,1.02-.64,2.2-.96,3.4-.92h1.07c.34,.02,.67,.08,1,.16v5.62c-.42-.13-.85-.23-1.29-.3-.44-.07-.88-.11-1.33-.11-.95-.04-1.91,.13-2.79,.49-.65,.3-1.2,.78-1.58,1.38-.39,.64-.63,1.36-.71,2.11-.12,.9-.17,1.8-.17,2.71v8.32h-6.15l-.02-19.89Z"/><path class="b" d="M338,317c-.97,1.29-2.24,2.32-3.7,3-1.47,.67-3.06,1.01-4.67,1-1.48,0-2.94-.24-4.33-.74-1.31-.46-2.51-1.18-3.53-2.11-1-.93-1.8-2.05-2.35-3.3-1.15-2.76-1.15-5.85,0-8.61,.55-1.25,1.35-2.37,2.35-3.3,1.02-.93,2.22-1.65,3.53-2.11,1.39-.5,2.85-.75,4.33-.74,1.33-.02,2.64,.24,3.87,.74,1.13,.47,2.14,1.19,2.95,2.11,.83,.97,1.47,2.09,1.87,3.3,.45,1.39,.67,2.84,.65,4.3v1.93h-14.26c.2,1.09,.76,2.08,1.6,2.81,.84,.7,1.91,1.08,3,1.05,.9,.03,1.79-.21,2.56-.68,.71-.46,1.33-1.05,1.83-1.74l4.3,3.09Zm-5.21-8.77c.05-.99-.31-1.96-1-2.67-.72-.74-1.72-1.13-2.75-1.1-.62-.01-1.23,.1-1.8,.33-.49,.2-.94,.48-1.33,.84-.37,.33-.66,.73-.87,1.18-.2,.45-.32,.93-.34,1.42h8.09Z"/><path class="b" d="M356.19,307c-.33-.46-.76-.84-1.27-1.09-.54-.28-1.15-.43-1.76-.43-1.36-.08-2.68,.43-3.63,1.4-1.72,2.12-1.72,5.17,0,7.29,.95,.97,2.27,1.48,3.63,1.4,.62,.02,1.23-.14,1.76-.45,.48-.29,.91-.65,1.27-1.07l4.06,4.27c-.93,.97-2.1,1.68-3.38,2.07-1.2,.38-2.45,.57-3.71,.59-1.48,0-2.94-.24-4.33-.74-1.3-.46-2.5-1.18-3.52-2.11-1-.93-1.81-2.05-2.36-3.3-1.15-2.76-1.15-5.85,0-8.61,.55-1.25,1.36-2.37,2.36-3.3,1.02-.93,2.22-1.65,3.52-2.11,2.58-.93,5.39-.98,8-.14,1.29,.38,2.45,1.1,3.38,2.07l-4.02,4.26Z"/><path class="b" d="M381.65,320.49h-5.9v-2.71h-.08c-.24,.41-.52,.8-.84,1.15-.36,.39-.79,.73-1.25,1-.52,.32-1.09,.57-1.68,.74-.65,.19-1.32,.29-2,.29-1.3,.05-2.6-.19-3.8-.72-.92-.44-1.71-1.13-2.25-2-.56-.92-.92-1.94-1.07-3-.18-1.23-.27-2.48-.26-3.73v-11h6.15v9.76c0,.57,0,1.17,.06,1.78,.03,.59,.16,1.16,.37,1.71,.19,.5,.52,.94,.94,1.27,.54,.35,1.18,.53,1.82,.49,.67,.03,1.34-.12,1.93-.43,.47-.27,.87-.67,1.13-1.15,.27-.5,.44-1.05,.51-1.62,.08-.63,.12-1.26,.12-1.89v-9.92h6.15l-.05,19.98Z"/><path class="b" d="M386,300.56h6.15v3.2h.08c.55-1.1,1.35-2.05,2.34-2.77,1.02-.64,2.2-.96,3.4-.92h1.07c.34,.02,.67,.08,1,.16v5.62c-.42-.13-.85-.23-1.29-.3-.44-.07-.88-.11-1.33-.11-.95-.04-1.91,.13-2.79,.49-.65,.3-1.2,.78-1.58,1.38-.39,.64-.63,1.36-.72,2.11-.11,.9-.16,1.8-.16,2.71v8.32h-6.17v-19.89Z"/><path class="b" d="M402.69,300.56h6.15v3.2h.08c.54-1.1,1.34-2.05,2.34-2.77,1.01-.64,2.2-.97,3.4-.92h1.06c.34,.02,.67,.08,1,.16v5.62c-.42-.13-.85-.23-1.29-.3-.44-.07-.89-.11-1.34-.11-.95-.04-1.9,.13-2.78,.49-.65,.3-1.2,.78-1.58,1.38-.39,.64-.63,1.36-.72,2.11-.11,.9-.17,1.8-.16,2.71v8.32h-6.15v-19.89Z"/><path class="b" d="M437.5,317c-.99,1.26-2.27,2.26-3.74,2.91-1.47,.67-3.06,1.01-4.67,1-1.48,0-2.94-.24-4.33-.74-1.3-.46-2.5-1.18-3.52-2.11-1-.93-1.81-2.05-2.36-3.3-1.15-2.76-1.15-5.85,0-8.61,.55-1.25,1.36-2.37,2.36-3.3,1.02-.93,2.22-1.65,3.52-2.11,1.39-.5,2.85-.75,4.33-.74,1.33-.02,2.64,.24,3.87,.74,1.15,.46,2.18,1.18,3,2.11,.83,.97,1.46,2.09,1.86,3.3,.46,1.39,.68,2.84,.66,4.3v1.93h-14.31c.2,1.09,.76,2.08,1.6,2.81,.84,.7,1.91,1.08,3,1.05,.9,.03,1.8-.21,2.57-.68,.71-.47,1.32-1.05,1.82-1.74l4.34,3.18Zm-5.21-8.77c.05-.99-.31-1.95-1-2.67-.72-.74-1.71-1.14-2.74-1.1-.62-.01-1.24,.1-1.81,.33-.49,.2-.94,.48-1.33,.84-.37,.33-.66,.73-.86,1.18-.2,.45-.32,.93-.35,1.42h8.09Z"/><path class="b" d="M442.17,300.56h5.9v2.71h.08c.22-.42,.49-.81,.82-1.15,.38-.39,.81-.73,1.28-1,.52-.32,1.09-.57,1.68-.74,.67-.2,1.36-.3,2.05-.29,1.3-.05,2.58,.19,3.77,.72,.92,.45,1.69,1.14,2.23,2,.57,.91,.94,1.94,1.09,3,.2,1.23,.3,2.48,.29,3.73v11h-6.15v-9.76c0-.57,0-1.17-.07-1.78-.03-.58-.15-1.16-.36-1.7-.4-1.16-1.55-1.89-2.77-1.77-.67-.03-1.33,.12-1.93,.43-.47,.27-.87,.67-1.13,1.15-.27,.5-.44,1.05-.51,1.62-.08,.63-.12,1.26-.12,1.89v9.92h-6.15v-19.98Z"/><path class="b" d="M479.19,307c-.33-.46-.76-.84-1.27-1.09-.54-.28-1.15-.43-1.76-.43-1.36-.08-2.68,.43-3.63,1.4-1.72,2.12-1.72,5.17,0,7.29,.95,.97,2.27,1.48,3.63,1.4,.62,.02,1.23-.14,1.76-.45,.47-.29,.9-.65,1.27-1.07l4.06,4.27c-.93,.97-2.1,1.68-3.38,2.07-1.2,.38-2.45,.57-3.71,.59-1.48,0-2.94-.24-4.33-.74-1.31-.46-2.51-1.18-3.53-2.11-1-.93-1.8-2.05-2.35-3.3-1.15-2.76-1.15-5.85,0-8.61,.55-1.25,1.35-2.37,2.35-3.3,1.02-.93,2.22-1.65,3.53-2.11,2.58-.93,5.39-.98,8-.14,1.29,.38,2.45,1.1,3.38,2.07l-4.02,4.26Z"/><path class="b" d="M504.32,317c-.99,1.26-2.27,2.26-3.73,2.91-1.47,.67-3.06,1.01-4.67,1-1.48,0-2.94-.24-4.33-.74-1.3-.46-2.5-1.18-3.52-2.11-1.01-.93-1.81-2.05-2.36-3.3-1.15-2.76-1.15-5.85,0-8.61,.55-1.25,1.35-2.37,2.36-3.3,1.02-.93,2.22-1.65,3.52-2.11,1.39-.5,2.85-.75,4.33-.74,1.33-.02,2.64,.24,3.87,.74,1.13,.47,2.14,1.19,2.95,2.11,.83,.97,1.47,2.09,1.87,3.3,.46,1.39,.68,2.84,.66,4.3v1.93h-14.27c.2,1.09,.76,2.08,1.6,2.81,.84,.7,1.91,1.08,3,1.05,.9,.03,1.79-.21,2.56-.68,.71-.46,1.33-1.05,1.83-1.74l4.33,3.18Zm-5.2-8.77c.05-.99-.31-1.95-1-2.67-.72-.74-1.72-1.13-2.75-1.1-.62-.01-1.23,.1-1.8,.33-.49,.2-.94,.48-1.33,.84-.37,.33-.66,.73-.86,1.18-.2,.45-.32,.93-.35,1.42h8.09Z"/><path class="b" d="M17.11,91.34V30.45l-9.4,9.33L1.42,25.32,18.62,8.76h12.38V91.34h-13.89Z"/><path class="b" d="M81.11,50.05c-.01,4.87-.29,9.74-.84,14.58-.5,4.75-1.54,9.43-3.1,13.94-1.31,3.9-3.46,7.46-6.3,10.43-2.75,2.75-6.52,4.23-10.41,4.09-3.9,.16-7.7-1.33-10.46-4.09-2.84-2.97-4.99-6.53-6.29-10.43-1.57-4.51-2.6-9.19-3.06-13.94-.52-4.84-.79-9.71-.8-14.58,.01-4.87,.28-9.74,.8-14.58,.46-4.75,1.49-9.43,3.06-13.94,1.3-3.9,3.45-7.47,6.29-10.44,2.76-2.76,6.56-4.25,10.46-4.09,3.89-.14,7.66,1.33,10.41,4.08,2.84,2.97,5,6.54,6.3,10.44,1.57,4.51,2.61,9.19,3.1,13.94,.55,4.84,.83,9.71,.84,14.59Zm-14.18,0c0-2.72-.08-5.64-.22-8.75-.13-2.89-.44-5.78-.93-8.63-.38-2.27-1.05-4.49-2-6.59-.83-1.75-1.95-2.63-3.37-2.63s-2.54,.88-3.37,2.63c-.95,2.1-1.63,4.31-2,6.59-.5,2.85-.81,5.74-.93,8.63-.07,3.13-.11,6.05-.11,8.75s.07,5.65,.22,8.86c.11,2.87,.42,5.74,.93,8.57,.38,2.26,1.05,4.46,2,6.54,.83,1.75,1.95,2.62,3.37,2.62s2.48-.87,3.31-2.64c.94-2.09,1.61-4.28,2-6.54,.5-2.83,.81-5.7,.93-8.57,.09-3.09,.17-6.04,.17-8.84Z"/><path class="b" d="M127.65,50.05c-.01,4.87-.29,9.74-.84,14.58-.5,4.75-1.54,9.43-3.1,13.94-1.31,3.9-3.46,7.46-6.3,10.43-5.87,5.45-14.96,5.45-20.83,0-2.84-2.97-4.99-6.53-6.29-10.43-1.57-4.51-2.6-9.19-3.06-13.94-.52-4.84-.79-9.71-.8-14.58,.01-4.87,.28-9.74,.8-14.58,.46-4.75,1.49-9.43,3.06-13.94,1.3-3.9,3.45-7.47,6.29-10.44,5.88-5.44,14.95-5.44,20.83,0,2.84,2.97,5,6.54,6.3,10.44,1.57,4.51,2.61,9.19,3.1,13.94,.55,4.84,.83,9.71,.84,14.58Zm-14.18,0c0-2.72-.08-5.64-.22-8.75-.13-2.89-.44-5.78-.93-8.63-.37-2.27-1.02-4.49-1.95-6.59-.83-1.75-1.96-2.62-3.37-2.63s-2.54,.87-3.37,2.63c-.94,2.1-1.59,4.32-1.95,6.59-.5,2.85-.81,5.74-.93,8.63-.15,3.11-.23,6.02-.22,8.75,0,2.73,.08,5.68,.22,8.86,.11,2.87,.42,5.74,.93,8.57,.36,2.25,1.02,4.44,1.95,6.52,.83,1.75,1.96,2.63,3.37,2.62,1.41,0,2.54-.88,3.37-2.62,.92-2.09,1.58-4.29,1.95-6.54,.5-2.83,.81-5.7,.93-8.57,.14-3.09,.22-6.04,.22-8.84Z"/><path class="b" d="M157.79,29.4c.03,2.94-.27,5.88-.89,8.75-.5,2.39-1.35,4.7-2.52,6.85-.97,1.8-2.34,3.36-4,4.55-1.58,1.1-3.46,1.68-5.38,1.66-1.89,.02-3.73-.55-5.28-1.63-1.66-1.19-3.03-2.75-4-4.55-1.17-2.16-2.02-4.48-2.52-6.88-.62-2.87-.92-5.81-.89-8.75-.03-2.96,.27-5.91,.89-8.81,.5-2.44,1.35-4.8,2.52-7,.96-1.82,2.33-3.4,4-4.61,1.55-1.08,3.39-1.65,5.28-1.62,1.92-.03,3.81,.54,5.39,1.64,1.67,1.21,3.04,2.79,4,4.61,1.17,2.2,2.02,4.56,2.52,7,.61,2.89,.91,5.84,.88,8.79Zm-8.51-.12c.08-2.73-.26-5.47-1-8.1-.69-2.12-1.79-3.18-3.28-3.18-1.33,0-2.35,1.07-3.06,3.21-.74,2.63-1.08,5.37-1,8.1-.06,2.7,.27,5.4,1,8,.67,2.22,1.69,3.33,3.06,3.33,1.47,0,2.55-1.11,3.23-3.33,.75-2.61,1.1-5.32,1.05-8.03Zm1.95,64.51l-6.65-3.15L171.44,5.26l6.56,3.38-26.77,85.15Zm38.77-22.51c.02,2.94-.27,5.87-.89,8.74-.5,2.41-1.35,4.73-2.52,6.89-.97,1.8-2.34,3.35-4,4.54-1.57,1.09-3.45,1.67-5.36,1.64-1.89,.02-3.74-.55-5.28-1.64-1.67-1.19-3.03-2.74-4-4.54-1.18-2.17-2.03-4.5-2.53-6.91-.62-2.87-.92-5.8-.89-8.74-.03-2.96,.27-5.91,.89-8.81,.49-2.42,1.34-4.76,2.52-6.94,.97-1.8,2.34-3.36,4-4.55,1.55-1.08,3.39-1.65,5.28-1.63,1.91-.01,3.78,.57,5.35,1.67,1.66,1.2,3.03,2.75,4,4.55,1.18,2.18,2.03,4.52,2.52,6.94,.62,2.89,.92,5.84,.91,8.79Zm-8.6-.12c.05-2.7-.29-5.39-1-8-.65-2.18-1.72-3.27-3.19-3.27s-2.38,1.09-3.06,3.27c-.73,2.6-1.06,5.3-1,8-.06,2.7,.27,5.4,1,8,.67,2.17,1.69,3.26,3.06,3.26,1.47,0,2.54-1.09,3.19-3.26,.7-2.61,1.03-5.3,.97-8h.03Z"/><path class="b" d="M16.58,253.76c-2.58,.06-5.12-.68-7.27-2.1-2.14-1.47-3.91-3.4-5.19-5.66-1.49-2.63-2.55-5.48-3.12-8.45-.69-3.46-1.03-6.98-1-10.5-.07-4.23,.47-8.46,1.6-12.54,.9-3.28,2.39-6.36,4.4-9.1,1.73-2.33,3.97-4.23,6.56-5.54,2.52-1.24,5.28-1.88,8.09-1.87,2.82-.02,5.61,.64,8.12,1.92,2.57,1.34,4.8,3.25,6.51,5.6,1.98,2.75,3.43,5.83,4.3,9.1,1.09,4.05,1.61,8.23,1.55,12.42,.05,4.59-.45,9.18-1.5,13.65-.99,3.97-2.26,7.87-3.82,11.66l-12,30H7.62l12.38-29.29-.09-.12c-.44,.3-.94,.5-1.47,.59-.61,.14-1.23,.22-1.86,.23Zm-2.93-26.48c-.13,3.34,.49,6.66,1.82,9.72,1.21,2.45,2.87,3.67,5,3.68,2,0,3.67-1.25,5-3.74,1.45-3.01,2.13-6.34,2-9.68,.14-3.32-.53-6.62-1.95-9.62-1.3-2.45-3-3.67-5-3.67s-3.74,1.22-5,3.67c-1.38,3.02-2.02,6.32-1.87,9.64Z"/><path class="b" d="M81.47,265.77v16.57h-12.59v-16.57h-23v-15.86l18.35-50.15h17.2v50.62h6.38v15.39h-6.34Zm-12.33-47.77h-.14l-10.76,32.38h10.9v-32.38Z"/><path class="b" d="M117.9,220.4c.02,2.94-.27,5.87-.89,8.75-.5,2.4-1.35,4.72-2.52,6.88-.97,1.8-2.34,3.36-4,4.55-1.58,1.09-3.45,1.66-5.37,1.63-1.88,.02-3.73-.55-5.27-1.63-1.67-1.19-3.03-2.75-4-4.55-1.17-2.16-2.02-4.48-2.53-6.88-.61-2.88-.91-5.81-.88-8.75-.02-2.96,.27-5.91,.88-8.81,.51-2.44,1.36-4.8,2.53-7,.95-1.83,2.32-3.41,4-4.61,1.54-1.08,3.39-1.65,5.27-1.63,1.92-.03,3.8,.55,5.38,1.65,1.67,1.21,3.04,2.79,4,4.61,1.17,2.2,2.02,4.56,2.52,7,.61,2.89,.9,5.84,.88,8.79Zm-8.51-.12c.08-2.73-.26-5.47-1-8.1-.67-2.14-1.75-3.21-3.24-3.21-1.36,0-2.37,1.07-3,3.21-1.36,5.28-1.36,10.81,0,16.09,.68,2.22,1.69,3.33,3,3.33s2.56-1.11,3.24-3.33c.73-2.6,1.06-5.29,1-7.99Zm2,64.51l-6.65-3.15,26.86-85.38,6.56,3.38-26.77,85.15Zm38.74-22.52c.02,2.94-.27,5.87-.89,8.75-.5,2.41-1.35,4.73-2.52,6.89-.97,1.8-2.34,3.35-4,4.54-1.58,1.09-3.45,1.67-5.37,1.64-1.89,.02-3.73-.55-5.27-1.64-1.67-1.19-3.03-2.74-4-4.54-1.17-2.16-2.03-4.48-2.53-6.89-.61-2.88-.91-5.81-.88-8.75-.02-2.96,.27-5.91,.88-8.8,.5-2.43,1.35-4.76,2.53-6.94,.97-1.8,2.34-3.36,4-4.55,1.54-1.08,3.39-1.65,5.27-1.63,1.92-.03,3.79,.54,5.37,1.63,1.66,1.2,3.03,2.75,4,4.55,1.18,2.18,2.03,4.52,2.52,6.94,.6,2.89,.88,5.84,.84,8.8h.05Zm-8.6-.11c.05-2.72-.29-5.43-1-8.05-.66-2.17-1.72-3.26-3.2-3.26s-2.38,1.09-3.05,3.26c-1.36,5.28-1.36,10.82,0,16.1,.67,2.17,1.68,3.26,3.05,3.26,1.48,0,2.54-1.09,3.2-3.26,.7-2.62,1.02-5.34,.95-8.05h.05Z"/></svg>